<?xml version="1.0" encoding="UTF-8"?>
<svg enable-background="new 0 0 404.794 298.007" viewBox="0 0 404.794 298.007" xmlns="http://www.w3.org/2000/svg">
 <path d="m384.281,10.816c-1.593,1.264-3.918.074-5.967,0-8.608-.312-18.037.479-26.854,0-.198-1.78-1.363-4.2-.746-5.595-.638-.854-2.102-.882-3.356-1.119 .606,2.541 2.4,7.019 3.356,10.443-15.587-.265-32.48.295-46.995.373-2.555-7.331 5.237-8.961 11.562-9.698-.436,1.756 1.096,2.902 1.865,4.476-.686.931-2.035,1.197-2.238,2.611 2.23,1.39 2.843-.559 3.357-1.492 1.18.686 2.26,3.039 4.476,1.492-.679-1.311-1.941-2.038-2.984-2.984-.108-1.601 1.758-1.227 1.865-2.611-1.781-.963-3.89.489-5.595-.746 1.349-1.733 3.989-.818 5.968-1.119 4.794-.728 12.933-1.08 19.768-.746 1.136.017 1.45-.788 2.237-1.119 .209-.724 1.686.713 2.238.373 .057-.035-.052-.74 0-.746 6.843-.725 17.641.446 23.87,1.492 6.152,1.034 10.182,4.473 14.173,6.715zm-23.497-5.221c.619.625 2.189.297 3.356.373-.628,1.734-3.047,1.677-3.729,3.357 2.098.462 5.938.923 7.46.746-.028-.65.083-1.16.373-1.492-1.031-1.278-3.449.889-3.73-.746 1.215-1.148 3.935-.791 3.73-3.356-2.898.287-4.737-.485-7.46-.373v1.491zm-33.568,1.119c.212,1.901 2.981,1.246 2.983,3.357 .105,1.135-1.194,1.45-.373,2.238 .971.372 2.244.08 3.357-.373-1.635-3.353 1.938-3.447 2.983-5.222-2.097-.943-5.902-.192-8.95,0zm-3.729,2.611c.517,1.042 3.896,2.062 3.729-.373-.623-1.211-3.429-.879-3.729.373z" fill="#fffff7" fill-rule="evenodd"/>
 <path d="m360.784,4.103c2.723-.112 4.562.66 7.46.373 .204,2.566-2.516,2.208-3.73,3.356 .281,1.635 2.699-.532 3.73.746-.29.332-.401.842-.373,1.492-1.521.177-5.362-.284-7.46-.746 .683-1.68 3.102-1.623 3.729-3.357-1.167-.076-2.737.251-3.356-.373v-1.491z" fill-rule="evenodd"/>
 <path d="m336.167,6.714c-1.045,1.774-4.618,1.869-2.983,5.222-1.113.453-2.387.745-3.357.373-.821-.788.479-1.103.373-2.238-.002-2.111-2.771-1.456-2.983-3.357 3.047-.192 6.852-.943 8.95,0z" fill-rule="evenodd"/>
 <path d="m303.346,19.395c-14.97-.802-35.169-.186-49.979-.373-.673-7.498 5.453-10.531 12.309-11.189 9.779-.939 24.324.989 32.449.746 3.79,1.555 3.425,7.265 5.221,10.816zm-29.839-6.341c.49,1.5.385,3.594 2.238,3.73 1.05-.442.198-2.786 1.865-2.611-.146,1.514.136,2.599 1.491,2.611 1.796-1.188 1.296-4.672 3.357-5.595-.619-.625-2.19-.297-3.357-.373 .226.821.938,2.78-.373,2.984-.425-.818-.962-1.524-.745-2.984h-1.865c-.979.702 1.446,1.727-.373,2.238-1.23-.215-.535-1.408-.373-2.238-1.201-.166-2.021-.714-3.356-.746-.907,1.572 1.059,1.718 1.491,2.984z" fill="#fffff7" fill-rule="evenodd"/>
 <path d="m241.432,8.206h.746v.746h-.746v-.746z" fill-rule="evenodd"/>
 <path d="m327.216,8.952c.166,2.435-3.213,1.415-3.729.373 .3-1.252 3.106-1.584 3.729-.373z" fill-rule="evenodd"/>
 <path d="m388.011,9.325c.459.163.766.477.746,1.119-.459-.163-.766-.478-.746-1.119z" fill-rule="evenodd"/>
 <path d="m272.016,10.071c1.336.031 2.155.58 3.356.746-.162.83-.857,2.022.373,2.238 1.819-.511-.605-1.536.373-2.238h1.865c-.217,1.46.32,2.166.745,2.984 1.311-.204.599-2.163.373-2.984 1.167.076 2.738-.251 3.357.373-2.062.922-1.562,4.407-3.357,5.595-1.355-.012-1.638-1.097-1.491-2.611-1.667-.175-.815,2.168-1.865,2.611-1.854-.136-1.748-2.23-2.238-3.73-.432-1.267-2.398-1.413-1.491-2.984z" fill-rule="evenodd"/>
 <path d="m249.264,13.054c1.942,2.412 3.06,7.629 4.103,9.697h-52.216c.286-3.194 1.554-5.408 2.61-7.832 15.313-.332 31.949-4.357 45.503-1.865zm-27.226,1.492c.543,2.44 2.645,3.322 2.983,5.967 3.101-.256 1.996-4.717 4.476-5.594-1.176-.75-2.072-.798-2.983-.373 .06,1.178.013,2.251-.746,2.611-.867-.5-.576-2.159-1.119-2.984-.991.004-2.131-.141-2.611.373z" fill="#fffff7" fill-rule="evenodd"/>
 <path d="m224.648,14.173c.543.825.252,2.484 1.119,2.984 .759-.36.806-1.433.746-2.611 .911-.425 1.808-.377 2.983.373-2.479.877-1.375,5.338-4.476,5.594-.339-2.645-2.44-3.527-2.983-5.967 .481-.514 1.621-.369 2.611-.373z" fill-rule="evenodd"/>
 <path d="m354.07,14.546c.161-.834 1.839-.151 2.611-.373-.52.571-1.931,1.059-2.611.373z" fill="#fffff7" fill-rule="evenodd"/>
 <path d="m388.384,14.173c-.819,1.139-2.388-.43 0,0z" fill="#fffff7" fill-rule="evenodd"/>
 <path d="m200.03 15.665c1.388-1.302 1.892 1.017 0 0z" fill="#fffff7" fill-rule="evenodd"/>
 <path d="m396.962,16.411c1.725,32.47.903,63.405 1.492,102.195 .151,10.016.545,21.856.373,33.94-1.076-.705-1.032-2.501-1.119-3.729-.157-2.207.017-7.275 0-11.562-.058-14.388-.762-32.226-.746-49.605 .021-22.396.574-47.82-.746-70.12-31.1-1.078-58.073.6-86.903,0-1.41-.029-4.233.929-5.222-1.119 29.668-.085 62.946-.988 92.871,0z" fill="#fffff7" fill-rule="evenodd"/>
 <path d="m196.675,16.411c3.12,2.49 2.104,6.832 4.476,10.07-13.113-.141-34.829-.219-51.471.373 2.214-3.132 5.086-5.606 7.833-8.206 3.698-1.408 7.298-2.145 11.935-1.865 3.25.196 6.723-.56 9.697-.373 5.968.377 12.426-1.207 17.53.001zm-26.854,2.611c.979,2.502.374,6.589 4.849,5.595 1.884-1.433.922-3.475 1.865-5.595h-2.611c.248,1.029 1.229,4.587-.746,4.476-1.6-.952.413-3.199-.746-4.476-.291.827-1.805-1.23-2.611,0z" fill="#fffff7" fill-rule="evenodd"/>
 <path d="m200.032,17.157c.749-.127 1.167.076 1.119.746h-1.119v-.746z" fill="#fffff7" fill-rule="evenodd"/>
 <path d="m399.201,17.903c.458.163.766.478.745,1.119-1.294.325-1.279-.574-.745-1.119z" fill="#fffff7" fill-rule="evenodd"/>
 <path d="m330.946,18.276c-.45,1.104-1.83,1.029-2.61,1.119-2.942.341-6.474-.035-10.07,0-3.647.035-7.529-.026-11.562,0-.635.137-.704-.291-.746-.746 7.855-.56 15.666-.091 24.988-.373z" fill="#fffff7" fill-rule="evenodd"/>
 <path d="m374.957,18.649c4.726-.869 11.064-.125 16.411-.373-3.63,1.464-11.833.562-16.411.373z" fill="#fffff7" fill-rule="evenodd"/>
 <path d="m392.114,18.649c.649-.506 1.62-.57 2.237-.373 2.11.675 1.637,11.205 1.865,16.038 .37,7.822.031,12.911 0,18.648-.188,34.396.828,70.219.746,102.195-1.277-2.223-.661-5.188-.746-7.832-1.119-34.882-.031-75.599-1.119-113.758-.063-2.233-.34-5.561-.373-7.459-.085-4.89 1.022-7.79-2.61-7.459z" fill="#fffff7" fill-rule="evenodd"/>
 <path d="m172.432,19.022c1.159,1.276-.854,3.523.746,4.476 1.974.111.994-3.447.746-4.476h2.611c-.943,2.12.019,4.162-1.865,5.595-4.475.994-3.87-3.093-4.849-5.595 .806-1.23 2.32.827 2.611,0z" fill-rule="evenodd"/>
 <path d="m377.568,30.211c-2.469-.018-5.179.205-6.714-.746-10.593,1.122-28.168.625-40.654.746-1.211-4.39-.938-9.332 2.611-10.816 12.668-.392 26.904.727 39.162,0 1.226.639 2.064,1.665 3.356,2.238 .463,3.905 1.494,4.954 2.239,8.578zm-29.465-7.086c.29.083.434.312.373.746 1.229,1.102 1.863-.934 2.61,0 .247,1.739-.588,2.396-.746,3.729 1.073.366 2.963,1.241 4.103.373-.463-1.043-1.998-2.956-.745-4.476 .66.334.475,1.514 1.864,1.119 .803-.316 1.319-.919 1.119-2.238-2.189-.877-7.998-2.01-8.578.747z" fill="#fffff7" fill-rule="evenodd"/>
 <path d="m393.606,20.514c.488,17.326.444,34.607.745,51.098 .549,29.957.691,54.407.373,86.157-1.406-.546-.749-2.416-.745-3.356 .114-34.602-1.349-71.339-1.119-108.163 .052-8.4.558-16.832-.746-24.989-5.226-1.752-10.468,1.104-14.919-.373 1.058.351 4.602-.353 5.595-.373 3.508-.074 6.649-.199 10.816-.001z" fill="#fffff7" fill-rule="evenodd"/>
 <path d="m254.486,20.887c17.404-1.271 36.312.69 52.59-.373-1.485,1.898-4.413,1.17-6.341,1.119-10.57-.28-30.854-.144-46.249-.746z" fill="#fffff7" fill-rule="evenodd"/>
 <path d="m329.082,20.514c-.533,2.362-1.954,2.408-3.73,1.119-4.672-.633-11.944-.363-16.783,0-.434.061-.664-.083-.746-.373-.061-.434.082-.664.373-.746h20.886z" fill="#fffff7" fill-rule="evenodd"/>
 <path d="m356.681,22.379c.2,1.319-.316,1.921-1.119,2.238-1.39.395-1.204-.785-1.864-1.119-1.253,1.52.282,3.433.745,4.476-1.14.868-3.029-.007-4.103-.373 .158-1.333.993-1.99.746-3.729-.747-.934-1.382,1.102-2.61,0 .061-.434-.083-.664-.373-.746 .58-2.758 6.389-1.625 8.578-.747z" fill-rule="evenodd"/>
 <path d="m391.368,22.379c1.487,28.354.727,67.62 1.119,92.871 .188,12.111 1.14,22.747.746,34.687-1.805-1.256-.671-3.722-.746-5.595-1.584-39.498-.494-79.063-1.492-121.59-3.639-.567-5.148.152-10.816,0-.061-.434.083-.664.373-.746 2.454-.546 7.317-.122 10.816.373z" fill="#fffff7" fill-rule="evenodd"/>
 <path d="m256.351,22.751c1.994-.865 5.591-.127 8.205-.373-1.993.866-5.591.128-8.205.373z" fill="#fffff7" fill-rule="evenodd"/>
 <path d="m265.302,22.751c.639-.854 2.847-.137 4.103-.373-.638.854-2.847.138-4.103.373z" fill="#fffff7" fill-rule="evenodd"/>
 <path d="m272.016,22.751c1.252-.861 4.097-.13 5.968-.373-1.252.863-4.097.131-5.968.373z" fill="#fffff7" fill-rule="evenodd"/>
 <path d="m326.097,23.498c2.228,2.497 1.572,7.877 4.103,10.07-4.032,1.268-9.89-.225-14.173,0-1.668.088-3.151.935-4.849,1.119-11.325,1.229-23.336-1.236-31.703,0-.859-3.928-4.513-8.702-.373-11.189 .728-.437 1.967-.22 3.357-.373 4.505-.495 14.417-.296 19.395-.373 6.744-.103 12.638.336 17.902.373 2.25.016 4.413-.642 6.341.373zm-27.599,3.73c1.233,1.813.576,1.533.373,4.103 2.014,1.119 5.858.967 5.967-1.865-.11-.76-.747-.994-1.119-1.492 .654-.341 1.296-.693 1.119-1.865-1.293-.999-5.55-1.216-6.34,1.119z" fill="#fffff7" fill-rule="evenodd"/>
 <path d="m276.492,24.244c-.988,2.875-4.29.906-6.341.746-15.425-1.207-34.938,0-51.471,0-4.295,0-8.509.162-13.054,0-.918-.033-2.81.676-3.356-.746 26.323.464 51.139-.677 74.222,0z" fill="#fffff7" fill-rule="evenodd"/>
 <path d="m304.837,26.108c.177,1.171-.465,1.524-1.119,1.865 .372.499 1.009.732 1.119,1.492-.108,2.832-3.953,2.983-5.967,1.865 .203-2.569.86-2.29-.373-4.103 .791-2.334 5.048-2.117 6.34-1.119zm-2.237,1.12c-.227-.215-1.77-.873-1.865,0 .226.214 1.769.872 1.865,0zm0,2.61c-.377-.618-1.584-.405-2.238-.746-.647,1.424 2.323,2.259 2.238.746z" fill-rule="evenodd"/>
 <path d="m382.417,25.735c-1.241,1.126-5.978-.253-1.492,0 1.017.034.75-.621 1.492,0z" fill="#fffff7" fill-rule="evenodd"/>
 <path d="m387.638,25.362c1.67,15.792.54,31.229.746,45.13 .49,33.125 1.271,58.202 1.119,91.752-1.375-1.769-.725-4.272-.746-6.341-.286-26.913-1.17-57.995-1.119-85.784 .027-14.919-.158-29.628-.373-44.011-.457.119-2.304-.06-1.119-.373 .332-.289.843-.401 1.492-.373z" fill="#fffff7" fill-rule="evenodd"/>
 <path d="m229.124,26.108c-6.157.765-19.076.249-26.108.373 8.19-.817 18.316-.208 26.108-.373z" fill="#fffff7" fill-rule="evenodd"/>
 <path d="m274.253,27.228c2.404,2.942 3.099,7.593 5.222,10.816-15.455-.712-31.092.213-49.605,0-.745-2.114-.798-4.92-1.864-6.713 .934-1.801 1.576-3.893 3.356-4.849 13.506,1.521 28.555-1.47 42.891.746zm-26.107,2.237c-.002,1.244 1.213,1.273 1.118,2.611 .729,2.069-1.65,2.266-.746,3.356 1.977-.274 6.449,1.183 7.087-1.119-.503-.74-2.604.117-2.61-1.119 .277-1.09 2.013-.722 1.864-2.238-.147-2.413-4.699-2.161-6.713-1.491z" fill="#fffff7" fill-rule="evenodd"/>
 <path d="m300.735,27.228c.096-.873 1.639-.215 1.865,0-.096.872-1.639.214-1.865,0z" fill="#fffff7" fill-rule="evenodd"/>
 <path d="m226.886,27.228c.5.245.694.797.746,1.492-1.722,1.469-4.304-1.309-7.833-.373-.884.309-1.718-.525-.373-.373 2.448-.288 5.346-.125 7.46-.746z" fill="#fffff7" fill-rule="evenodd"/>
 <path d="m386.146,27.228c.217,24.873.746,49.699.746,73.476 0,21.772.815,48.76.373,69-1.706-.882-1.082-4.456-1.119-7.087-.3-21.326.127-43.53-.373-63.405-.558-22.181-.846-46.749-.746-70.492-1.188-1.049-4.757.281-5.967-.746 1.042-1.569 4.85-.372 7.086-.746z" fill="#fffff7" fill-rule="evenodd"/>
 <path d="m180.264,28.346c-2.847,2.16-6.485.729-9.697.746-7.456.038-15.85.406-24.989,0 1.377-1.571 5.504-.688 7.833-.746 8.251-.206 17.045-1.047 26.853,0z" fill="#fffff7" fill-rule="evenodd"/>
 <path d="m203.02 27.6c-1.975 1.143-3.582-0.464 0 0z" fill="#fffff7" fill-rule="evenodd"/>
 <path d="m204.507,28.346c-.062-.809 1.323-.169 1.865-.373 .063.809-1.323.169-1.865.373z" fill="#fffff7" fill-rule="evenodd"/>
 <path d="m216.443,27.973c-.592-.218-8.233,1.464-9.324.373 .744.745 7.58-1.323 9.324-.373z" fill="#fffff7" fill-rule="evenodd"/>
 <path d="m254.859,30.957c.148,1.516-1.587,1.148-1.864,2.238 .007,1.236 2.107.379 2.61,1.119-.638,2.302-5.11.844-7.087,1.119-.904-1.091 1.475-1.288.746-3.356 .095-1.338-1.12-1.367-1.118-2.611 2.014-.671 6.566-.923 6.713,1.491zm-2.237-.373c-.706.084-.823-.42-1.492-.373-.523,1.66 1.71,2.02 1.492.373z" fill-rule="evenodd"/>
 <path d="m300.362,29.092c.654.341 1.861.128 2.238.746 .085,1.513-2.885.678-2.238-.746z" fill="#fffff7" fill-rule="evenodd"/>
 <path d="m229.124,41.027c-3.17.295-6.251-.367-9.324-.373-5.162-.01-10.19.735-16.038.746-9.205.017-18.83-1.068-29.092,0 1.724-3.272 2.07-11.124 7.087-11.935 3.082-.499 7.217.024 11.188,0 3.736-.023 7.6,0 11.562,0 7.539,0 19.128-1.194 21.633,1.865 1.109,1.355.872,3.938 1.492,5.968 .502,1.646 1.625,2.479 1.492,3.729zm-30.211-5.594c.221,2.496 3.437,2.082 4.476,4.476 1.178-.066 2.225-.262 2.238-1.492-.103-1.309-1.39.936-1.492-.373 .722-.895 2.094-1.139 2.238-2.611-.098-5.689-7.827-4.146-7.46,0z" fill="#fffff7" fill-rule="evenodd"/>
 <path d="m380.178,29.838c.518-.851 2.597-.139 3.73-.373 .393,9.585.614,22.955.372,34.687-.029,1.434.667,3.575-.745,4.476 1.499,4.404.535,9.018.745,13.427 1.307,27.321.516,59.78 1.119,91.005-1.132-.672-1.031-2.63-1.119-3.729-.705-8.828-.373-20.489-.372-30.211 0-12.5.416-24.643 0-35.06-1.054-26.362-.042-51.491-1.492-73.849-1.139.269-1.359-.381-2.238-.373z" fill="#fffff7" fill-rule="evenodd"/>
 <path d="m176.908,30.211c-1.088,2.86-4.904,1.191-7.087,1.119-8.702-.289-19.163.906-28.346,0 .468-1.432 2.471-.68 3.357-.746 9.939-.738 19.113-.315 32.076-.373z" fill="#fffff7" fill-rule="evenodd"/>
 <path d="m251.129,30.211c.669-.048.786.457 1.492.373 .219,1.647-2.014,1.287-1.492-.373z" fill="#fffff7" fill-rule="evenodd"/>
 <path d="m381.297,31.33c.903,8.876.641,18.777.746,29.092 .306,30.033.914,62.573.746,91.752-.007,1.229.052,2.479 0,3.729-.045,1.083.687,3.049-.746,3.729-.273-25.87-.285-51.344-.746-82.427-.027-1.861-.508-3.915.373-5.595-.502-.854-.595-1.174-.746-2.238-.937-6.609-.32-13.818-.373-19.768-.055-6.225.271-11.772.373-16.784-14.319-.896-32.688,1.096-45.876.373-1.305-.071-4.529.709-3.729-1.492 14.001.436 31.11-1.135 42.892.373 2.019-.59 4.319-.901 7.086-.744z" fill="#fffff7" fill-rule="evenodd"/>
 <path d="m206.373,35.433c-.145,1.472-1.517,1.716-2.238,2.611 .103,1.309 1.39-.936 1.492.373-.014,1.23-1.061,1.426-2.238,1.492-1.039-2.395-4.255-1.98-4.476-4.476-.367-4.146 7.362-5.689 7.46,0zm-4.849,1.119c.99-.004 2.13.141 2.61-.373 1.035-4.62-4.709-2.889-2.61.373z" fill-rule="evenodd"/>
 <path d="m176.162,32.822c-1.166,1.239-4.463,1.089-5.595.373 .537-1.329 4.479-.819 5.595-.373z" fill="#fffff7" fill-rule="evenodd"/>
 <path d="m169.448,33.941c1.385,1.337.954,3.681 1.492,5.595 .667,2.372 2.43,3.972 2.238,5.595-18.41-.732-34.024.167-52.589.373 4.199-4.379 8.567-8.589 13.8-11.935 8.78.364 21.849-1.397 31.33-.746 1.334.091 2.638.56 3.729,1.118zm-27.227,8.951h2.984c-.288-3.232 3.21-1.597 3.357-4.103 .146-2.491-2.702-2.88-6.714-2.611 .698,2.21 1.488,4.666.373,6.714z" fill="#fffff7" fill-rule="evenodd"/>
 <path d="m204.134,36.179c-.48.514-1.62.369-2.61.373-2.099-3.262 3.645-4.993 2.61-.373z" fill="#fffff7" fill-rule="evenodd"/>
 <path d="m376.076,33.941c-5.111,1.343-13.979.74-20.514.373 2.934-1.742 6.908-.373 10.443-.373 3.486,0 6.945-.851 10.071,0z" fill="#fffff7" fill-rule="evenodd"/>
 <path d="m379.06,33.568c1.34,4 .745,8.962.745,13.8 0,6.34.22,12.673 0,17.157-.085.579 1.165,3.366-.745,3.357-.141-11.196.324-22.726-.373-32.449 .34-1.121-2.996-.438-1.492-1.492 .432-.313 1-.492 1.865-.373z" fill="#fffff7" fill-rule="evenodd"/>
 <path d="m171.686,34.314c1.012.231 2.96-.474 3.357.373 .127,1.316-3.913,1.143-3.357-.373z" fill="#fffff7" fill-rule="evenodd"/>
 <path d="m399.201,34.314c1.591,19.575.318,38.395.745,58.93 .363,17.416.94,37.787.746,56.692-1.374-2.122-.746-4.779-.746-7.086 0-35.529-1.355-71.033-.745-108.536z" fill="#fffff7" fill-rule="evenodd"/>
 <path d="m355.189,35.433c.496.297.963.97 1.492,1.492 1.772,1.747 1.588,3.352 2.611,6.34 .68,1.988 1.883,3.126 1.864,4.849-17.45-1.354-31.78.29-49.232,0-1.413-4.279-3.283-8.825 0-11.562 .402-.335 1.973-1.044 3.356-1.119 10.26-.555 31.046.816 39.909,0zm-21.26,4.476c-4.239,4.607 5.564,8.506 5.968,2.611 .163-2.377-1.349-4.137-3.729-3.73-.626.106-1.891.741-2.239,1.119zm9.698,1.864h.745v-.746h-.745v.746z" fill="#fffff7" fill-rule="evenodd"/>
 <path d="m280.221,35.806c9.698.249 20.389-.497 29.465.373-1.02,1.355-4.178.746-6.713.746-5.599,0-16.575,1.126-21.633,0-.717-.16-1.003.275-1.119-1.119z" fill="#fffff7" fill-rule="evenodd"/>
 <path d="m141.848,36.179c4.012-.269 6.859.12 6.714,2.611-.147,2.506-3.645.871-3.357,4.103h-2.984c1.115-2.049.325-4.505-.373-6.714zm2.984,3.357c.949-.046 1.446-.543 1.492-1.492-.504-.117-.712-.531-1.492-.373v1.865z" fill-rule="evenodd"/>
 <path d="m172.432,36.552c.919-.049 1.797-.057 2.238.373-1.972.463.402,3.072-1.865,3.357 .123-1.492-.665-2.071-.373-3.73z" fill="#fffff7" fill-rule="evenodd"/>
 <path d="m360.038,38.043c2.899-.979 8.113-.375 10.816-.373 .542.204 1.928-.436 1.865.373-3.425.182-7.615-.404-10.443.373-.047-.823-1.582-.158-2.238-.373z" fill="#fffff7" fill-rule="evenodd"/>
 <path d="m144.832,37.67c.78-.158.988.256 1.492.373-.046.949-.543,1.446-1.492,1.492v-1.865z" fill="#fffff7" fill-rule="evenodd"/>
 <path d="m308.941,38.043c-.58,1.372-3.494-.167-5.595.373-.087-.45 4.302-1.266 5.595-.373z" fill="#fffff7" fill-rule="evenodd"/>
 <path d="m373.465,38.043c.06-.437.68-.314 1.118-.373 2.49-.332 1.442,2.927 1.492,3.73 1.314,21.065.464,50.024.746,69 .388,26.038.606,50.855 1.119,74.595-1.074-.836-1.057-2.863-1.119-4.103-.174-3.416.024-8.445 0-13.055-.104-19.406-.873-36.713-.746-55.573 .111-16.473-.589-35.001-.746-52.962-.011-1.218-.298-2.405-.373-3.73-.209-3.717 1.291-16.298-.373-17.53-.24-.177-.851.145-1.118.001z" fill="#fffff7" fill-rule="evenodd"/>
 <path d="m336.167,38.79c2.381-.407 3.893,1.353 3.729,3.73-.403,5.896-10.207,1.997-5.968-2.611 .349-.378 1.614-1.013 2.239-1.119zm-.746,5.221c2.505.858 2.084-2.676 1.492-3.729h-1.119c-.385.981-.446,2.288-.373,3.729z" fill-rule="evenodd"/>
 <path d="m306.703,40.282c2.892,2.827 2.975,8.463 5.222,11.935-17.151-.816-36.518-.158-55.2-.373-1.526-4.533-.6-8.091 1.492-11.562 16.366-1.422 32.378-.908 48.486,0zm-28.346,2.238c-.281,1.399 1.424.813 1.491,1.865 .116,1.981.157,3.887-1.119,4.476 .543.577 1.91.329 2.984.373 .994-.706-1.441-2.146.373-2.611 .575.792 1.073,1.662 1.491,2.611 1.752-.385 3.079,1.112 3.357-.746-.102-.769-1.651-.089-1.492-1.119 .709-1.156.017-3.714 1.119-4.476-.619-.625-2.189-.296-3.356-.373 .163.856 1.539,2.406.372,3.356-.8-.94-.997-2.483-1.864-3.356-1.564.05-2.084-.679-3.356,0z" fill="#fffff7" fill-rule="evenodd"/>
 <path d="m374.21,39.536c-.859,13.95 1.144,27.77.373,40.654-.027.471.104,1.033 0,1.492-.357,1.595-.436.215 0,1.865 .794,3.002.323,7.149.373,10.443 .488,31.917.047,62.88 1.119,94.362-1.97-.5-1.067-3.001-1.119-4.103-.903-19.25-1.119-47.274-1.118-70.119 0-26.194-.958-50.274-1.119-73.103-3.383-.844-8.311-.144-12.309-.373v-1.119c3.79-.64 10.003-.582 13.8.001z" fill="#fffff7" fill-rule="evenodd"/>
 <path d="m230.989,39.536c9.092,1.12 18.053-.553 25.362.373-.735,1.358-3.055,1.075-4.849,1.119-5.398.133-14.044-.032-20.141,0-.289-.333-.401-.843-.372-1.492z" fill="#fffff7" fill-rule="evenodd"/>
 <path d="m335.794,40.282h1.119c.592,1.054 1.013,4.588-1.492,3.729-.073-1.441-.012-2.748.373-3.729z" fill="#fffff7" fill-rule="evenodd"/>
 <path d="m343.627,41.027h.745v.746h-.745v-.746z" fill-rule="evenodd"/>
 <path d="m371.6,42.146c.83,49.385 1.438,101.377 1.865,148.817-.83-11.922-1.281-24.29-1.492-36.552-.615-35.779-.452-73.939-1.119-111.146-1.186-.677-3.166-.304-5.222-.373-1.549-.052-4.035.64-4.476-.746 2.779-.25 6.831-.26 10.444,0z" fill="#fffff7" fill-rule="evenodd"/>
 <path d="m255.232,42.892c-1.18,1.763-3.448.422-4.849.373-11.531-.4-22.723,0-36.552,0-12.286,0-23.525.794-35.433.373-1.283-.045-3.692.757-4.476-1.119 26.01.183 48.762-.373 75.341-.373 1.077,0 2.234-.054 3.357,0 .585.028 2.418-.644 2.612.746z" fill="#fffff7" fill-rule="evenodd"/>
 <path d="m281.713,42.52c.867.874 1.064,2.417 1.864,3.356 1.167-.951-.209-2.5-.372-3.356 1.167.076 2.737-.252 3.356.373-1.103.762-.41,3.32-1.119,4.476-.159,1.03 1.391.35 1.492,1.119-.278,1.858-1.605.361-3.357.746-.418-.949-.916-1.819-1.491-2.611-1.814.464.621,1.905-.373,2.611-1.074-.044-2.441.204-2.984-.373 1.276-.589 1.235-2.495 1.119-4.476-.067-1.052-1.772-.465-1.491-1.865 1.272-.679 1.792.05 3.356,0z" fill-rule="evenodd"/>
 <path d="m369.363,43.638c1.936,29.714.746,69.058 1.864,103.314-1.424-.914-.679-3.432-.746-5.595-.29-9.371-.632-27.252-.746-39.535-.17-18.357-.475-37.292-.745-56.692-1.791-1.436-7.313,1.025-7.46-1.119 2.15-.336 4.637-.286 7.833-.373z" fill="#fffff7" fill-rule="evenodd"/>
 <path d="m202.643,44.011c-.904,2.031-3.344.805-5.222.746-5.337-.168-11.577.535-18.276.373-.712-.018-2.623.659-2.983-.746 9.38-.254 17.533.44 26.481-.373z" fill="#fffff7" fill-rule="evenodd"/>
 <path d="m257.097,57.065c-18.318.02-38.061-.029-55.2,0-1.944-4.104-1.202-7.938 1.118-11.189 8.771-2.775 26.643-.063 38.417-1.119 3.444-.309 10.542-.386 12.308,2.238 .963,1.429.6,3.426 1.119,5.222 .595,2.054 1.656,3.097 2.238,4.848zm-35.059-9.697c.539,1.45 1.444,2.533 1.118,4.849-.352.642-1.378.61-1.118,1.865 .875.881 1.832-.061 2.983,0 .18-1.226-1.749-1.968 0-2.611 .377.99.613,2.122 1.865,2.238 1.461.218.952-1.534 1.864-1.865 .622.498.125,2.113.746,2.611 1.14.27 1.359-.381 2.238-.373-1.437-1.443-1.461-4.875 0-6.34-.542-.577-1.909-.329-2.984-.373-1.117.747-.128,3.601-1.864,3.729-1.111-1.675-1.65-5.317-4.848-3.73z" fill="#fffff7" fill-rule="evenodd"/>
 <path d="m367.871,45.876c.261,1.148.261.717 0,1.865-1.561.783-3.932-.432-5.222-1.119 .524-1.465 3.537-.441 5.222-.746z" fill="#fffff7" fill-rule="evenodd"/>
 <path d="m226.886,51.098c1.736-.128.747-2.982 1.864-3.729 1.075.044 2.442-.204 2.984.373-1.461,1.465-1.437,4.897 0,6.34-.879-.008-1.099.643-2.238.373-.621-.498-.124-2.113-.746-2.611-.912.331-.403,2.083-1.864,1.865-1.252-.116-1.488-1.248-1.865-2.238-1.749.643.18,1.385 0,2.611-1.151-.061-2.108.881-2.983,0-.26-1.254.767-1.223 1.118-1.865 .326-2.315-.579-3.398-1.118-4.849 3.198-1.587 3.737,2.055 4.848,3.73z" fill-rule="evenodd"/>
 <path d="m197.048,48.487c.277-.841 2.092-.146 2.983-.373v1.865c-1.568.076-1.566-1.417-2.983-1.492z" fill="#fffff7" fill-rule="evenodd"/>
 <path d="m367.125,48.487c.603-.105.642.353 1.119.373 .966,47.449.273,90.395 2.237,139.865 .046,1.15.077,2.923 0,4.103-.08,1.237.319,3.067-1.118,3.73-1.537-49.713-1.763-93.497-2.611-146.952-.106-.603.352-.642.373-1.119z" fill="#fffff7" fill-rule="evenodd"/>
 <path d="m201.151,61.541c-18.89.051-37.083-.041-54.827,0-1.637-3.887.097-8.833 1.865-11.562 5.605-.881 11.754-1.119 17.157-1.119 10.674,0 20.719.173 30.957.746 4.012,1.582 3.311,7.877 4.848,11.935zm-30.211-8.951c.804,1.414 1.438,5.157-.373,5.967 1.102,1.249 5.051.832 6.714.373 .494-1.11.382-1.893-.373-2.611-1.643-.026-1.484,1.749-2.984,1.865-.937-1.956-.083-4.278.746-5.594-1.256-.657-1.913.25-3.73,0z" fill="#fffff7" fill-rule="evenodd"/>
 <path d="m364.886,48.86c.966,27.466 1.712,56.259 1.119,83.546-1.269-25.319-1.045-53.934-1.492-82.054-15.479-1.505-32.963,1.178-51.843-.373 .761-1.369 3.574-.735 5.595-.746 14.933-.08 31.231.341 46.621-.373z" fill="#fffff7" fill-rule="evenodd"/>
 <path d="m145.951,51.098c-2.25,1.973-6.154,1.119-9.325,1.119-5.515,0-11.895.948-17.157.373-.7-.077-1.574-.714-2.238-.746-2.336-.114-5.998,1.489-7.833-.373 1.165-1.994 4.872-1.119 7.833-1.119 7.567,0 18.479-.498 25.735-.373 .888.015 2.605-.472 2.985,1.119z" fill="#fffff7" fill-rule="evenodd"/>
 <path d="m366.005,203.271c-1.984-.513-1.053-2.895-1.119-4.103-.578-10.609-.457-21.507-.746-31.702-1.067-37.74-.896-78.795-1.864-115.25-3.33-.825-7.156-.42-11.189-.373-12.751.148-25.687.426-36.552,0 3.608-1.046 7.49-.313 11.189-.373 10.605-.171 23.132.696 35.06-.373 1.874-.168 2.131-1.137 2.611,1.492 .557,3.049.188,12.742.373,17.53 .596,15.469.026,41.347.745,57.065 1.345,29.369.471,57.526 1.492,76.087z" fill="#fffff7" fill-rule="evenodd"/>
 <path d="m174.669,52.59c-.829,1.316-1.683,3.638-.746,5.594 1.5-.116 1.342-1.891 2.984-1.865 .755.718.867,1.501.373,2.611-1.663.459-5.612.875-6.714-.373 1.811-.81 1.177-4.553.373-5.967 1.818.25 2.475-.657 3.73,0z" fill-rule="evenodd"/>
 <path d="m360.784,52.962c1.007,37.987 1.299,77.914 2.238,115.995 .264,10.712.48,24.963.373,34.687-.013,1.093 1.062,2.549-.373,3.357-1.634-6.187-.381-13.549-.746-20.141-.931-16.798-.466-37.157-1.119-54.828-.858-23.224-.841-51.405-1.492-76.833-4.386-1.416-9.744-.453-15.292-.373-11.331.163-23.907,0-35.805,0-6.171,0-12.431.833-17.53.373-1.364-.124-2.924-.708-4.103-1.492-5.375,1.664-16.453,1.369-24.616,1.119-1.752-.054-4.839.833-5.222-1.492 18.99-1.208 37.933,1.615 55.946,0 14.37-1.287 33.032,1.06 47.741-.372z" fill="#fffff7" fill-rule="evenodd"/>
 <path d="m142.967,53.335h1.865c.047.669-.457.787-.373,1.492-.95-.045-1.447-.542-1.492-1.492z" fill="#fffff7" fill-rule="evenodd"/>
 <path d="m145.951,66.017c-3.655-.829-7.151-.018-10.816,0-5.329.025-11.137-1.275-15.292,1.119-10.497-.684-23.627-.803-35.06-.373 .052-1.315 1.673-1.062 2.611-1.492 3.378-4.952 8.567-8.093 13.427-11.562 5.012.368 10.416-.351 16.038,0 1.104.069 2.251.664 3.357.746 5.137.384 10.12-.392 15.665-.373 3.187.011 6.745-.302 7.832,2.984 .382,1.153.054,2.458.373,3.729 .517,2.062 2.464,3.564 1.865,5.222zm-34.687-8.952c1.866,1.682 1.634,4.7.373,6.713h3.73c-.434-1.001-1.366-2.593 0-3.356 1.758.211.662,2.701 1.119,3.356h3.73c-.469-2.017-2.566-2.407-2.238-5.222 .568-.675 2.557.071 2.238-1.492-.93-.314-1.999-.488-3.357-.373-.55,1.19-.735,2.746-2.611,2.611-.202-1.321 1.321-.917 1.119-2.238-1.797-.08-2.444-.709-4.103.001z" fill="#fffff7" fill-rule="evenodd"/>
 <path d="m401.065,53.708c1.616.156-.393,2.166 0,0z" fill="#fffff7" fill-rule="evenodd"/>
 <path d="m287.681,55.573c-.948,2.999-4.033,1.499-5.968,1.492-6.797-.022-14.458.688-22.006,0-.165-.332-.327-.667-.746-.746 1.182-1.688 3.47-.388 4.849-.373 7.931.088 14.604-.22 23.871-.373z" fill="#fffff7" fill-rule="evenodd"/>
 <path d="m358.546,55.573c1.154,53.765 2.215,111.774 2.61,154.039-1.074-.723-1.061-2.654-1.119-3.729-.425-7.797.019-20.165-.373-29.838-1.627-40.205-.68-77.315-1.864-118.606-8.014-1.537-17.298,1.433-23.498-1.119 .166-.332.328-.667.746-.746 8.51.542 13.689-.164 23.498-.001z" fill="#fffff7" fill-rule="evenodd"/>
 <path d="m115.367,57.065c.202,1.321-1.321.917-1.119,2.238 1.876.135 2.061-1.421 2.611-2.611 1.358-.115 2.427.059 3.357.373 .319,1.562-1.67.817-2.238,1.492-.328,2.814 1.769,3.205 2.238,5.222h-3.73c-.457-.656.639-3.146-1.119-3.356-1.366.764-.434,2.355 0,3.356h-3.73c1.261-2.013 1.493-5.031-.373-6.713 1.659-.711 2.306-.082 4.103-.001z" fill-rule="evenodd"/>
 <path d="m400.692,57.065c.273-.664.679-.054 1.119,0-.823,4.606-.282,2.887-1.119,0z" fill="#fffff7" fill-rule="evenodd"/>
 <path d="m339.897,69.747c-19.046-.087-31.871.3-51.097.373-.934-3.17-1.047-7.159-2.984-9.325 .619-5.142 7.415-3.729 13.8-3.729 9.527,0 23.082.028 33.195,0 5.289,1.299 4.427,8.751 7.086,12.681zm-27.227-3.73c-.989-.503-1.019-1.966-2.611-1.865-.079.418-.414.581-.746.746-.103,2.465 2.438,2.287 4.849,2.238 2.278-1.581.424-5.217 2.611-7.086-1.046-.446-2.574-.41-4.103-.373 .693,1.342 1.442,5.163 0,6.34z" fill="#fffff7" fill-rule="evenodd"/>
 <path d="m237.33,58.557c-9.746,2.313-23.536.583-35.06,1.119v-1.119c12.647.017 24.849-.357 35.06,0z" fill="#fffff7" fill-rule="evenodd"/>
 <path d="m254.486,58.557c-.277.841-2.092.146-2.983.373 .861-.947 1.663-.535 2.983-.373z" fill="#fffff7" fill-rule="evenodd"/>
 <path d="m258.961,58.557c-1.5,1.089-1.61.362-3.729.373-.105-.652 2.786-.72 3.729-.373z" fill="#fffff7" fill-rule="evenodd"/>
 <path d="m268.659,58.557c-1.175.66-6.765.566-6.713,0 2.174-.833 4.981.036 6.713,0z" fill="#fffff7" fill-rule="evenodd"/>
 <path d="m284.697,58.93c-1.548,1.82-4.849-.795-7.832,0 .493-1.153 2.083-.319 3.356-.373 1.569-.065 3.838-1.311 4.476.373z" fill="#fffff7" fill-rule="evenodd"/>
 <path d="m270.524,58.557c-.819,1.139-2.389-.43 0,0z" fill="#fffff7" fill-rule="evenodd"/>
 <path d="m312.67,59.676c1.528-.037 3.057-.073 4.103.373-2.188,1.87-.333,5.506-2.611,7.086-2.411.049-4.951.227-4.849-2.238 .332-.166.667-.328.746-.746 1.593-.101 1.622,1.362 2.611,1.865 1.442-1.176.693-4.997 0-6.34z" fill-rule="evenodd"/>
 <path d="m288.054,72.73c-18.668-.604-35.768-.117-53.709-.373-.576-4.377-4.644-8.954-.373-11.935 17.647-.016 30.732-.054 48.114,0 4.358,1.487 4.28,9.394 5.968,12.308zm-31.33-10.07c1.35,1.337 1.83,5.577-.373,6.34 .546.854 4.923,1.587 4.849-.373-1.77-.747-1.476-4.852-.746-5.967-1.333-.734-1.991.173-3.73,0z" fill="#fffff7" fill-rule="evenodd"/>
 <path d="m231.362,60.795c-.496,2.996-3.711.969-5.968.746-6.094-.602-14.946.455-21.26,0-.434.061-.663-.083-.746-.373-.061-.434.083-.664.373-.746 11.567.89 17.869-.367 27.601.373z" fill="#fffff7" fill-rule="evenodd"/>
 <path d="m401.065,61.914c.143-.71.475.238.373.746-.142.71-.475-.238-.373-.746z" fill="#fffff7" fill-rule="evenodd"/>
 <path d="m260.454,62.66c-.729,1.116-1.023,5.221.746,5.967 .074,1.96-4.303,1.228-4.849.373 2.203-.763 1.723-5.003.373-6.34 1.739.173 2.397-.734 3.73,0z" fill-rule="evenodd"/>
 <path d="m177.654,63.033c-.759,2.617-3.84,1.147-5.595,1.119-7.459-.121-16.437.561-24.616.373-.071-.302-.374-.372-.373-.746-.061-.434.083-.664.373-.746 11.195-.062 20.267.737 30.211,0z" fill="#fffff7" fill-rule="evenodd"/>
 <path d="m234.345,76.46c-18.233-.831-36.217.262-58.184,0-1.639-3.94.256-7.985 1.492-11.189 4.935-3.699 13.574-1.271 22.005-1.865 8.976-.632 20.331-.675 28.347.373 3.342.994 3.01,5.156 4.103,8.206 .668,1.867 1.926,2.781 2.237,4.475zm-26.48-11.189c-1.088,2.021-6.746-.529-7.833,1.492 2.737.844 1.638,4.303.373,5.968 2.209.046 5.304.369 7.832,0-1.414-2.374-.388-4.876.373-7.087-.082-.291-.312-.434-.745-.373z" fill="#fffff7" fill-rule="evenodd"/>
 <path d="m401.065,63.779c1.092.951-.355,2.501.373,3.357-1.728-.131-.199-2.407-.373-3.357z" fill="#fffff7" fill-rule="evenodd"/>
 <path d="m159.004,65.271c4.543.934 12.347-.202 16.784.373-.272,2.52-4.553,1.411-5.595.373-1.412.92-3.559.167-5.222,0-2.141-.215-4.973.774-5.967-.746z" fill="#fffff7" fill-rule="evenodd"/>
 <path d="m208.61,65.644c-.761,2.21-1.787,4.713-.373,7.087-2.528.369-5.623.046-7.832,0 1.265-1.665 2.364-5.124-.373-5.968 1.087-2.021 6.745.529 7.833-1.492 .433-.061.663.082.745.373zm-5.222,1.865c-.281,1.684 2.492,1.397 1.865-.373-.865-.119-1.431.06-1.865.373zm0,4.102c1.163.54 2.535.061 2.238-1.865-.433-.313-1-.492-1.865-.373-.428.441-.422,1.319-.373,2.238z" fill-rule="evenodd"/>
 <path d="m171.313,68.254c2.326,1.757 1.963,5.271 2.983,8.206 .627,1.802 1.828,2.812 2.238,4.476-21.549-.947-38.675.062-61.541,0 .367-1.691 1.574-3.067 2.611-5.594 1.41-3.438 1.954-6.301 4.849-7.833 18.254,1.023 32.259-1.777 48.86.745zm-28.346,8.206c1.438,1.36 3.065,1.634 5.595,1.119 1.167-2.42.954-4.424-.373-6.714-3.616-.01-5.657,1.554-5.222,5.595z" fill="#fffff7" fill-rule="evenodd"/>
 <path d="m205.253,67.136c.627,1.77-2.146,2.057-1.865.373 .434-.313 1-.492 1.865-.373z" fill="#fffff7" fill-rule="evenodd"/>
 <path d="m118.723,68.254c-2.958,1.332-6.846.75-10.07.746-7.759-.009-17.989-.515-27.973-.373 9.822-1 26.674-.07 38.043-.373z" fill="#fffff7" fill-rule="evenodd"/>
 <path d="m379.06,68.627c.434-.061.663.083.745.373 .448,3.023.697,8.182 0,11.935-1.014-4.522-.018-8.721-.745-12.308z" fill="#fffff7" fill-rule="evenodd"/>
 <path d="m203.761,69.374c.865-.119 1.433.06 1.865.373 .297,1.925-1.075,2.404-2.238,1.865-.049-.92-.055-1.798.373-2.238z" fill="#fffff7" fill-rule="evenodd"/>
 <path d="m117.231,69.747c-1.382,2.425-3.614.771-5.222.746-11.304-.181-22.179.763-35.433,0 11.189-1.437 28.872.361 40.655-.746z" fill="#fffff7" fill-rule="evenodd"/>
 <path d="m148.188,70.865c1.327,2.29 1.541,4.293.373,6.714-2.53.515-4.157.241-5.595-1.119-.434-4.041 1.607-5.605 5.222-5.595zm-1.119,5.595c-.412-1.997-.04-1.727.373-3.357-2.821-1.988-3.687,3.929-.373,3.357z" fill-rule="evenodd"/>
 <path d="m401.065,71.611c.243-1.052.433.859.373,1.119-.173.749-.7.301-.373-1.119z" fill="#fffff7" fill-rule="evenodd"/>
 <path d="m116.858,71.611c.201,2.502-5.423,1.665-6.34.746 .827-1.535 4.33-.394 6.34-.746z" fill="#fffff7" fill-rule="evenodd"/>
 <path d="m108.653,72.73c2.354,1.861 2.596,5.79 3.73,8.951 .673,1.877 2.11,3.277 1.865,4.849-15.366-1.53-41.487-.37-58.93-.746-1.355-.503.516-1.988 1.119-2.983 .705-1.164 1.941-2.328 1.865-3.73 1.29-.7 2.004-1.974 2.611-3.357 2.998-1.98 6.25-3.327 11.189-3.356 10.919-.066 25.632-.179 36.551.372zm-29.465,2.984c1.577,2.139 1.346,4.884-.373,6.714 1.046.446 2.574.41 4.103.373 .822-.788-.479-1.103-.373-2.238 1.171-.184.985,1.285 1.865.373 .002-2.244 1.804-3.8 1.119-5.594-2.052.185-4.887-.412-6.341.372z" fill="#fffff7" fill-rule="evenodd"/>
 <path d="m147.442,73.103c-.413,1.63-.785,1.36-.373,3.357-3.314.572-2.448-5.345.373-3.357z" fill="#fffff7" fill-rule="evenodd"/>
 <path d="m317.892,73.476c8.407-.744 14.523-.092 23.87-.373 .691.801.252,2.732.373,4.103-1.238-.254-.418-2.566-1.492-2.984-5.672.692-13.99.237-21.26.373-.366-.504-.995-.745-1.491-1.119z" fill="#fffff7" fill-rule="evenodd"/>
 <path d="m116.485,74.222c-.926,1.279-3.292,1.174-4.476.373 .27-1.271 3.646-.839 4.476-.373z" fill="#fffff7" fill-rule="evenodd"/>
 <path d="m265.675,74.222c-.928,1.965-4.686,1.119-7.459,1.119h-15.665c-2.35,0-5.785.901-7.087-1.119 10.395.108 18.543.251 30.211,0z" fill="#fffff7" fill-rule="evenodd"/>
 <path d="m323.487,88.768c-20.829.277-40.18-.448-58.558,0-1.276-5.394-1.946-13.714 6.341-14.546 4.596-.461 13.026.373 22.378.373 8.94,0 19.098-.872 24.244.746 2.6.817 2.33,5.048 3.356,8.205 .778,2.391 2.617,3.096 2.239,5.222zm-33.942-10.443c1.08,1.034 1.866,2.361 1.865,4.476-.184,1.059-1.949.537-1.492,2.238 2.118.426 4.961.642 7.46,0 .146-1.514-.137-2.599-1.492-2.611-.093,1.397-1.877,2.456-2.61,1.119 2.591-.459 1.11-3.217 0-4.103 2.173-.682 1.55,1.434 3.356,1.119 .514-.481.369-1.62.373-2.611-2.629.488-4.872-.477-7.46.373z" fill="#fffff7" fill-rule="evenodd"/>
 <path d="m85.529,75.341c.685,1.794-1.117,3.35-1.119,5.594-.879.913-.694-.557-1.865-.373-.106,1.135 1.195,1.45.373,2.238-1.529.037-3.057.073-4.103-.373 1.719-1.83 1.95-4.575.373-6.714 1.454-.783 4.289-.186 6.341-.372zm-2.611,3.357c.288-.255.971-2.222-.373-1.865-.113.87-.796,1.607.373,1.865z" fill-rule="evenodd"/>
 <path d="m340.643,75.714c.908,24.236.442,46.093 1.119,69.747 .48,16.775.3,36.002.746,58.557 .025,1.313.411,3.136.373,4.476-.028.99.088,2.802-1.119,3.357-.61-44.696-1.539-91.271-1.865-135.017-2.712-.649-6.438-.393-10.07-.373-3.354.018-7.382,1.123-8.951-.746 6.793.375 13.961-.603 19.767-.001z" fill="#fffff7" fill-rule="evenodd"/>
 <path d="m237.33,75.714c1.78.762 4.442.248 6.34,0 2.007.356 4.262.463 6.714.373 .884-.308 1.718.526.373.373-3.424.181-7.615-.404-10.443.373-.183-1.186-3.363.627-2.984-1.119z" fill="#fffff7" fill-rule="evenodd"/>
 <path d="m112.76 76.087h2.611c0.729 2.091-3.341 2.091-2.611 0z" fill="#fffff7" fill-rule="evenodd"/>
 <path d="m253.367,76.087c-.819,1.139-2.389-.43 0,0z" fill="#fffff7" fill-rule="evenodd"/>
 <path d="m254.859,76.46c.161-.834 1.838-.151 2.611-.373-.161.834-1.839.151-2.611.373z" fill="#fffff7" fill-rule="evenodd"/>
 <path d="m262.32 76.087c-3.568 1.1-4.979-0.432 0 0z" fill="#fffff7" fill-rule="evenodd"/>
 <path d="m82.545,76.833c1.344-.357.661,1.61.373,1.865-1.169-.258-.486-.995-.373-1.865z" fill="#fffff7" fill-rule="evenodd"/>
 <path d="m210.475,77.579c-3.235,1.943-7.792,1.119-11.936,1.119-5.925,0-11.205.601-16.783.373-1.746-.071-3.924.321-4.849-1.119 13.207.298 24.173-.667 33.568-.373z" fill="#fffff7" fill-rule="evenodd"/>
 <path d="m239.567,77.952c.807-.9 4.14-.322 6.714-.373 .666-.105.766.353.373.373h-7.087z" fill="#fffff7" fill-rule="evenodd"/>
 <path d="m263.437,77.952c-.295,2.73-4.039.764-5.221,0h-5.595c-1.222-.163-5.08.377-4.476-.373 5.418.318 11.377-.625 15.292.373z" fill="#fffff7" fill-rule="evenodd"/>
 <path d="m216.443,77.579c-.238,1.346-1.789-.102-3.357.373-.907-.691 2.458-.252 3.357-.373z" fill="#fffff7" fill-rule="evenodd"/>
 <path d="m234.345,77.952c.639-.854 2.848-.137 4.103-.373-.638.854-2.847.137-4.103.373z" fill="#fffff7" fill-rule="evenodd"/>
 <path d="m338.406,77.952c.787,40.909 1.184,80.753 1.491,118.979 .082,10.109.373,20.111.373,31.329 0,3.036.476,6.301-.373,9.325-1.566-25.642-.774-52.838-1.118-80.562-.312-25.139-1.391-51.883-1.492-77.579-2.547-1.405-7.832-.612-11.936-.746-1.1-.036-3.098.628-3.356-.746 6.473-.084 11.192-.389 16.411,0z" fill="#fffff7" fill-rule="evenodd"/>
 <path d="m297.005,77.952c-.004.991.141,2.13-.373,2.611-1.807.314-1.184-1.801-3.356-1.119 1.11.886 2.591,3.643 0,4.103 .733,1.337 2.518.278 2.61-1.119 1.355.012 1.639,1.097 1.492,2.611-2.499.642-5.342.426-7.46,0-.457-1.701 1.309-1.179 1.492-2.238 .001-2.115-.785-3.442-1.865-4.476 2.588-.85 4.831.115 7.46-.373z" fill-rule="evenodd"/>
 <path d="m259.334,80.19c3.235,3.479 3.395,10.033 5.968,14.173-20.056-1.173-40.648-.034-62.287-.373-.268-2.506 1.066-3.41 1.865-4.849 .329-3.465 1.291-8.026 4.476-9.324 1.142-.465 3.768-.376 5.222-.373 11.864.028 32.927-.504 44.756.746zm-29.464,10.07c4.382,1.668 8.409-1.039 7.46-4.476-.617-2.23-3.942-2.325-7.087-2.611-.218,1.248 1.233,5.418-.373,7.087z" fill="#fffff7" fill-rule="evenodd"/>
 <path d="m206.746,79.817c-1.571,2.373-6.304.754-8.951.746-2.953-.01-7.567.373-11.562.373-2.705,0-5.903.743-7.46-1.119 10.397.121 19.067-.293 27.973,0z" fill="#fffff7" fill-rule="evenodd"/>
 <path d="m336.167,79.444c.598,9.648.655,20.146.373,26.108-1.979-.755-1.1-3.749-1.119-5.595-.061-5.798.286-13.556-.373-19.022-2.461-.538-5.507-.373-8.205-.373-1.483,0-3.989,1.458-4.476-.746 5.093-.43 9.479.172 13.8-.372z" fill="#fffff7" fill-rule="evenodd"/>
 <path d="m205.253,82.055c-2.206,2.006-5.512,1.119-8.205,1.119-27.062,0-56.632.448-82.801-.373 2.951-1.592 6.575-.481 9.697-.373 3.65.126 7.195,0 10.816,0 23.488,0 49.147-1.105 70.493-.373z" fill="#fffff7" fill-rule="evenodd"/>
 <path d="m379.06,82.055c.06-.437.68-.314 1.118-.373 .492,29.104.948,59.143.746,86.53-1.372-12.577-.509-29.813-.746-42.146-.269-14.016-1.092-27.475-.745-43.265 .061-.434-.083-.664-.373-.746z" fill="#fffff7" fill-rule="evenodd"/>
 <path d="m230.243,83.173c3.145.286 6.47.381 7.087,2.611 .949,3.437-3.078,6.144-7.46,4.476 1.606-1.669.155-5.839.373-7.087zm3.356,5.968c.818-.798 1.422-1.811 1.119-3.729-1.147.277-.717-1.024-1.864-.746 .26,1.48-.65,4.131.745,4.475z" fill-rule="evenodd"/>
 <path d="m147.069,83.919c-.229,1.263-1.655,1.329-2.238,2.238-4.347-.819-9.714.543-14.919.373-5.465-.179-10.895.523-14.173-1.865 10.552-.912 20.806.172 31.33-.746z" fill="#fffff7" fill-rule="evenodd"/>
 <path d="m196.675,84.292c1.746-.865 5.093-.128 7.459-.373-.133,4.466-5.879,1.198-7.459.373z" fill="#fffff7" fill-rule="evenodd"/>
 <path d="m232.854,84.666c1.147-.278.717,1.023 1.864.746 .303,1.918-.301,2.931-1.119,3.729-1.395-.344-.485-2.995-.745-4.475z" fill="#fffff7" fill-rule="evenodd"/>
 <path d="m203.761,99.958c-21.748.059-44.476-.091-64.151,0 .37-1.935 2.171-3.016 2.984-4.849 .92-2.077.967-4.696 2.238-6.714-11.588-.489-26.901-.342-42.519-.373 .983-1.126 2.309-.333 3.357-.373 10.476-.409 21.557-.151 33.567-.373 1.583-.029 3.492.594 5.222.373 1.855-.238 3.975-1.986 5.595-2.238 5.541-.863 14.394,0 22.751,0 8.662,0 16.734-1.242 22.751,0 5.401,1.114 5.408,9.765 8.205,14.547zm-35.432-9.698c-4.418,4.376 4.828,9.062 4.849,3.356-1.14-1.03-1.169,1.312-2.611,1.119-.787-.581-1.353-1.383-1.119-2.984 .741-.005.475-1.018 1.492-.746 1.198-.328.511,1.229 1.492,1.119 2.262-3.995-2.758-3.196-4.103-1.864z" fill="#fffff7" fill-rule="evenodd"/>
 <path d="m54.199,87.276h4.476 2.238c-.719.079-7.982,1.119-9.697.373-.214-.092 2.802-.889 2.983-.373z" fill="#fffff7" fill-rule="evenodd"/>
 <path d="m325.724,86.903h2.984c1.623,57.469 1.351,106.813 1.864,163.736-2.017-.766-1.074-3.519-1.119-4.849-.413-12.341.561-26.426 0-39.162-.636-14.464-1.048-25.684-.745-39.162 .318-14.206-.261-27.313-.373-40.282-.114-13.081-.069-25.159-.746-38.043-.158-1.183-2.997-.919-1.865-2.238z" fill="#fffff7" fill-rule="evenodd"/>
 <path d="m63.15,87.649c.397-.847 2.345-.142 3.357-.373-.397.847-2.344.142-3.357.373z" fill="#fffff7" fill-rule="evenodd"/>
 <path d="m68.372 87.649c1.388-1.302 1.892 1.018 0 0z" fill="#fffff7" fill-rule="evenodd"/>
 <path d="m92.615,87.649c-.517.85-2.596.139-3.73.373 .37-.971 2.919-.997 3.73-.373z" fill="#fffff7" fill-rule="evenodd"/>
 <path d="m97.091,88.022h-3.73c1.019-.707 3.549-.994 3.73,0z" fill="#fffff7" fill-rule="evenodd"/>
 <path d="m203.388,87.276c.098,1.216-.442,1.795-1.491,1.865-.321-.301-.222-1.021-.746-1.119 .042-.953 1.249-.74 2.237-.746z" fill="#fffff7" fill-rule="evenodd"/>
 <path d="m99.702,87.649c-.82,1.14-2.389-.43 0,0z" fill="#fffff7" fill-rule="evenodd"/>
 <path d="m48.231,89.141c1.375-.863 4.346-.13 6.341-.373-1.375.863-4.346.13-6.341.373z" fill="#fffff7" fill-rule="evenodd"/>
 <path d="m61.285,89.141c.397-.847 2.345-.142 3.357-.373-.397.847-2.345.142-3.357.373z" fill="#fffff7" fill-rule="evenodd"/>
 <path d="m65.015,89.141c2.118-.866 5.84-.127 8.578-.373-1.901.955-5.72.642-8.578.373z" fill="#fffff7" fill-rule="evenodd"/>
 <path d="m141.848,88.768c-1.52,1.766-4.327,1.088-6.34,1.119-16.48.251-32.887-.357-49.606-.373 1.015-1.417 3.155-.722 4.476-.746 17.052-.316 35.144.717 51.47,0z" fill="#fffff7" fill-rule="evenodd"/>
 <path d="m172.432,92.125c-.981.11-.293-1.447-1.492-1.119-1.018-.271-.751.741-1.492.746-.233,1.601.333,2.403 1.119,2.984 1.442.192 1.471-2.149 2.611-1.119-.021,5.706-9.267,1.02-4.849-3.356 1.345-1.333 6.365-2.132 4.103,1.864z" fill-rule="evenodd"/>
 <path d="m141.475,91.006c-1.093,2.065-3.881,1.065-5.594,1.119-12.804.404-27.779.066-42.146-.373-14.768-.451-32.623,1.084-50.352.373v-1.119c.302-.071.372-.374.746-.373 39.316.121 65.718-.211 97.346.373z" fill="#fffff7" fill-rule="evenodd"/>
 <path d="m323.114,92.498c2.024.762 1.072,3.572 1.118,4.849 .473,12.976.373,27.105.373,39.535 0,38.277.725,68.547 1.119,113.384 .014,1.576-.282,3.285-.373,4.849-.083,1.428.618,3.143-.746,4.103-.87-23.574-1.119-47.493-1.118-70.492 0-23.556-.652-46.771-.746-69.746-.04-9.749.732-15.673-.373-24.616-14.294-.045-30.886-.009-42.893,0-4.255.003-8.773.484-12.308-1.119 1.458-1.643 4.419-.43 6.713-.373 6.322.156 13.54-.09 20.514-.373 9.742-.396 20.078.495 28.72-.001z" fill="#fffff7" fill-rule="evenodd"/>
 <path d="m79.188,93.244c-2.232,2.012-6.117,1.154-9.697,1.119-8.652-.083-19.723.456-27.6,0-1.137-.066-3.519.876-3.73-1.119 13.356-.061 28.152.014 41.027,0z" fill="#fffff7" fill-rule="evenodd"/>
 <path d="m137.745,107.79c-20.54-.79-41.404-.479-64.152,0-.022-1.607 1.734-2.619 2.611-4.476 1.295-2.74 1.721-6.529 3.73-8.578 9.705-2.627 27.459-.595 40.654-1.119 4.695-.186 9.653-1.039 11.935.746 2.174,1.701 2.025,4.597 2.984,7.833 .703,2.371 2.468,3.763 2.238,5.594zm-35.806-10.816c1.386,2.032 1.563,5.557-.373,7.086 2.754.938 7.083.425 8.206-1.492-.582-1.74-1.428-2.237-.746-4.476-.959-1.45-4.951-1.322-7.087-1.118z" fill="#fffff7" fill-rule="evenodd"/>
 <path d="m134.015,93.244c2.228.508 6.623-1.152 7.087,1.119-1.805-.347-6.59,1.401-7.087-1.119z" fill="#fffff7" fill-rule="evenodd"/>
 <path d="m76.95,96.228c-.83,1.433-2.953.719-4.103.746-13.375.317-26.881-.128-39.536,0 1.462-2.036 4.768-1.119 7.087-1.119 11.217,0 18.547-.126 28.719,0 2.661.033 5.383-.797 7.833.373z" fill="#fffff7" fill-rule="evenodd"/>
 <path d="m139.61,95.854c.451,2.067-2.483.75-3.729,1.119v-1.119c.564-.454 3.212-.731 3.729,0z" fill="#fffff7" fill-rule="evenodd"/>
 <path d="m109.026,98.093c-.682,2.239.165,2.736.746,4.476-1.122,1.917-5.452,2.43-8.206,1.492 1.936-1.53 1.759-5.055.373-7.086 2.136-.205 6.128-.333 7.087,1.118zm-3.73,1.865c.713-.157 1.605-.135 1.492-1.119-.245-.5-.797-.694-1.492-.746-.478.49-.478,1.374 0,1.865zm1.492,3.356c.079-.418.414-.581.746-.746-.049-1.194-.846-1.641-2.238-1.492-.34,1.584.609,1.878 1.492,2.238z" fill-rule="evenodd"/>
 <path d="m75.831,98.465c-.087,2.489-2.666,1.726-4.103,1.865-1.626.157-4.013.267-5.595,0-1.808-.305-3.19-1.605-4.849-1.865-4.374-.685-9.697,0-14.546,0-3.848,0-10.923,1.16-14.173,0 .464.166 4.21-.741 4.849-.746 11.83-.091 26.056.127 38.417.746z" fill="#fffff7" fill-rule="evenodd"/>
 <path d="m136.626,97.72h1.865c.395,1.389-.786,1.204-1.119,1.865-.815-.055-.801-.94-.746-1.865z" fill="#fffff7" fill-rule="evenodd"/>
 <path d="m105.296,98.093c.694.051 1.247.245 1.492.746 .114.984-.779.962-1.492,1.119-.478-.491-.478-1.375 0-1.865z" fill="#fffff7" fill-rule="evenodd"/>
 <path d="m314.162,99.958h.746c3.608.532 2.189,6.043 2.238,9.697 .103,7.73.166,19.849.373,32.076 .602,35.577.205,71.142.746,109.282 .065,4.671.486,8.257.373,14.919-.023,1.324.865,3.264-.746,4.103-.965-.465-1.078-3.409-1.119-4.849-.271-9.492 0-23.805 0-36.925 0-39.978-.544-88.595-1.119-126.065-.222-1.029-2.855-.766-1.492-2.238z" fill-rule="evenodd"/>
 <path d="m105.296,101.076c1.392-.149 2.188.298 2.238,1.492-.332.165-.667.328-.746.746-.883-.36-1.832-.654-1.492-2.238z" fill="#fffff7" fill-rule="evenodd"/>
 <path d="m74.339,102.568c-1.298.083-2.846.164-4.849,0-.788-.064-2.743.573-2.611-.746 1.872.137 6.289-1.089 7.46.746z" fill="#fffff7" fill-rule="evenodd"/>
 <path d="m73.593,103.687c-.03,1.968-4.813,1.142-5.967.746 .39-1.702 4.566-1.26 5.967-.746z" fill="#fffff7" fill-rule="evenodd"/>
 <path d="m377.941,104.433c.434-.061.664.083.746.373-.219,25.884.799,43.394.746,65.644-1.045-.596-1.057-2.572-1.119-3.356-.378-4.718 0-9.938 0-14.919 0-16.045-.46-31.024-.373-46.622v-1.12z" fill="#fffff7" fill-rule="evenodd"/>
 <path d="m34.058,104.806h1.119c1.517,1.964 1.067,5.895 3.729,6.713-.597,1.97-2.509.492-4.476.746-.271-1.141.644-1.097.373-2.238h-1.119c-1.164.562 1.097,1.609 0,2.238-1.167-.076-2.738.251-3.356-.373 1.745-1.86 2.339-4.871 3.73-7.086zm1.119,4.476c-.085-.661.375-1.868-.746-1.492-.104.85.09,1.402.746,1.492z" fill-rule="evenodd"/>
 <path d="m68.372,105.925c1.167.077 2.738-.251 3.357.373-.177,1.315-1.758,1.226-2.984,1.492-.313-.433-.492-1-.373-1.865z" fill="#fffff7" fill-rule="evenodd"/>
 <path d="m336.167,106.298c.317-.068.352.146.373.373 .317-.068.352.146.373.373 .129,33.625 1.119,68.148 1.119,102.941 0,8.521-.111,17.082 0,24.616 .031,2.171 1.163,4.597-.373,6.341-1.129-20.515-1.119-43.109-1.119-66.39 0-23.136-.894-46.263-1.119-67.508 .093-.405.743-.253.746-.746z" fill="#fffff7" fill-rule="evenodd"/>
 <path d="m34.431,107.79c1.122-.376.661.831.746,1.492-.656-.09-.85-.642-.746-1.492z" fill="#fffff7" fill-rule="evenodd"/>
 <path d="m71.729,114.13c34.917.366 74.087.373 108.536.373 41.425,0 81.809-.001 122.336.373 1.413,15.8.504,37.074 1.118,54.081 .107,2.96-.341,5.852-.372,8.579-.03,2.588 1.391,5.644-.746,7.459 .181-24.273-.077-48.938-.746-68.254-28.23-.821-62.757-.188-96.974-.373-4.479-.024-8.724.369-13.054.373-4.539.004-9.042-.746-13.801-.746-34.775,0-71.425.333-105.551-.373-.005-.741-1.018-.474-.746-1.492z" fill="#fffff7" fill-rule="evenodd"/>
 <path d="m404.049,123.828c1.634-.271-.301.741.745.746-.221,2.924-.096,3.844-.373,6.713-.864-1.746-.128-5.093-.372-7.459z" fill-rule="evenodd"/>
 <path d="m366 132.78c1.07 19.258 1.402 43.974 1.492 66.762-1.408-22.832-1.789-43.262-1.492-66.762z" fill="#fffff7" fill-rule="evenodd"/>
 <path d="m370.481,148.071c1.024,2.015.972,7.11 1.119,11.189 .415,11.438-.045,24.028.373,34.687-1.151-6.935-.956-14.656-1.119-22.005-.165-7.465-.574-15.352-.373-23.871z" fill="#fffff7" fill-rule="evenodd"/>
 <path d="m400.319,151.428h1.119c.105.976-.136,1.604-1.119,1.491v-1.491z" fill="#fffff7" fill-rule="evenodd"/>
 <path d="m392.487,151.801c.434-.062.664.082.746.373-.461,2.647.943,7.16-.746,8.578-.014-3.792-.128-5.373 0-8.951z" fill="#fffff7" fill-rule="evenodd"/>
 <path d="m399.946,154.039c-.045.949-.542,1.446-1.491,1.492-.579-1.195-.131-1.641 1.491-1.492z" fill="#fffff7" fill-rule="evenodd"/>
 <path d="m382.043,160.379h1.119c.01,4.364-.092,10.872 0,15.665-1.376-.072-.688-1.997-.746-2.611-.413-4.292.275-8.73-.373-13.054z" fill="#fffff7" fill-rule="evenodd"/>
 <path d="m380.924,169.704c.143-.71.475.238.373.746-.141.71-.474-.239-.373-.746z" fill="#fffff7" fill-rule="evenodd"/>
 <path d="m379.06,171.196c.63,2.088 1.188,6.978.373,10.816-1.198-2.326-.934-7.959-.373-10.816z" fill="#fffff7" fill-rule="evenodd"/>
 <path d="m380.551,177.537c.172-1.031 1.314.55.746,1.118-.056.057-.722-1.258-.746-1.118z" fill="#fffff7" fill-rule="evenodd"/>
 <path d="m67.626,196.931c.056-.928 1.263-.109 1.492,0-.245,1.117-.798-.357-1.492,0z" fill-rule="evenodd"/>
 <path d="m342.508,212.223c.666,6.865-.28,15.454.373,21.632-1.938-1.212-1.119-5.688-1.119-9.324v-11.189c-.205-.827.712-.531.746-1.119z" fill="#fffff7" fill-rule="evenodd"/>
 <path d="m150.053,262.575c.979,2.004 2.268,3.699 3.729,5.222 .938.429 2.559.177 2.611,1.491-4.283.148-6.82-3.33-6.34-6.713z" fill="#fffff7" fill-rule="evenodd"/>
 <path d="m148.188,263.32c1.096,2.51 2.58,4.631 4.476,6.341 1.477.264 3.455.026 3.73,1.492-5.692.572-8.967-3.188-8.206-7.833z" fill="#fffff7" fill-rule="evenodd"/>
 <path d="m145.951,264.066c.434-.061.664.083.746.373 .489,5.106 3.796,7.394 8.579,8.206-5.217,2.379-11.104-2.72-9.325-8.579z" fill="#fffff7" fill-rule="evenodd"/>
 <path d="m321.995,264.066c.635-.137.703.291.746.746-.317-.068-.353.146-.373.373-.438-.06-.315-.68-.373-1.119z" fill-rule="evenodd"/>
 <path d="m126.929,296.515c.155-.396 2.045-.866 1.865-.373h4.476 2.238c.923-.048.634.457 0,.373h-8.579z" fill-rule="evenodd"/>
 <path d="m174.296,296.515c.396-.847 2.345-.142 3.357-.373-.397.847-2.344.142-3.357.373z" fill-rule="evenodd"/>
 <path d="m395.843,161.499c-.722-1.06 3.485-4.108 1.865-4.849-2.352-.486.172,3.901-2.984,2.61-.256,1.5.357,2.129.373,3.356-2.433-.732-2.613,1.198-1.864,2.611-.849.271-1.905.332-2.611.746 1.87,1.721-1.516,1.984-1.491,2.61-.022-.573.926,1.942 0,1.865-.229,1.528-1.025.747-2.238.746v3.729c-1.385.122-2.453.166-1.492,2.238-.98,1.061-1.413.73-2.61,1.118 1.242,3.106-.922,1.572-1.492,3.73-.183.689.002,1.056-.373,1.491-2.689-.114-.688,2.992-3.356,3.357 .234,1.096-.301,1.397-.746,2.237-.367.694-1.028,1.597-1.492,2.238-1.134,1.57-2.285,2.607-2.61,4.103-4.814,5.132-8.021,11.87-12.682,17.157-1.636-3.092-1.341-6.998-1.491-10.443-.403-9.19.295-21.559 0-32.822-.965-36.742-1.164-74.031-2.238-111.146-7.142.117-13.973-.061-18.648.746 1.324,1.548 4.959.746 8.205.746 3.364,0 6.825-.382 8.951,0 1.096,6.202.928,12.707 1.119,19.021 1.04,34.323.342,72.665 1.865,110.773 .265,6.626-.757,13.317 0,19.768 .207,1.767.56,2.591.746,3.357 .144.591 1.44,1.549-.373,2.237-2.433.059-1.408-3.061-1.492-4.103-.798-9.943-.373-21.575-.373-33.194 0-13.262-.53-26.863-.746-39.163-.446-25.43-.396-52.475-1.492-77.952-6.149-.233-8.982.563-14.918.373 2.084,3.014 9.104-.661 13.054,1.119 1.969,24.85 1.022,50.423 1.864,76.46 .696,21.509.604,43.406 1.492,66.762 .124,3.252-.587,6.807 0,9.324 .396,1.696.073,1.902 1.492,1.865-.533.835-1.197,1.537-1.865,2.237-2.123-.104-1.094-2.828-1.119-3.729-.324-11.607-.26-21.431-.372-32.821-.196-19.839-1.206-41.006-1.119-60.795 .077-17.638-.62-38.552-1.492-58.184-1.804-.463-3.979-.463-5.968-.373-1.932.087-4.407.095-5.967,1.119 1.941,2.025 7.146-.925 10.442.373 1.053,3.041.97,6.527 1.119,9.697 .483,10.234.319,20.161.373,30.211 .072,13.438.489,26.893.746,39.163 .502,24.013.86,48.408 1.119,70.492 .018,1.528-.072,3.014 0,4.476 .052,1.062 1.282,2.056-.373,3.357-1.993-2.411-1.119-6.709-1.119-10.816v-11.936c0-44.971-1.919-89.664-2.237-133.897-3.103.379-7.209-.247-9.325,1.119 1.555,1.883 4.864-.148 7.46.373 1.87,13.969.95,28.115 1.492,42.146 .352,9.125.127,18.369.373,27.601 .483,18.19.299,37.327.745,57.438 .22,9.885.299,20.096.746,29.465 .546.007 1.183-1.572 1.119,0-.937.805-.98,2.501-2.238,2.984-.45-36.323-1.188-68.712-1.864-104.06-.045-2.318.043-8.37 0-13.427-.11-13.048-.351-26.408-1.119-40.281-1.01-.619-4.585-.619-5.595,0-.226,2.464 3.909.567 4.476,2.238 .83,24.094 1.124,50.554 1.865,76.46 .547,19.131.22,39.578.746,58.184 .166,5.88-.244,11.485 0,16.784 .126,2.74 1.168,4.535.373,6.34-3.204-1.812-1.865-6.39-1.865-9.324 0-21.782-.694-48.195-.746-68.254-.037-14.504-.701-28.185-.746-41.773-.041-12.449-.199-26.162-1.119-37.67-19.052-.274-35.765.763-53.708,0 .631,1.992 3.189,1.066 4.476,1.119 16.673.686 30.401-1.215 48.114,0 1.273,27.107 1.157,55.139 2.237,83.173 .837,21.702.132,43.721.373,66.763 .017,1.546-.13,3.264 0,4.849 .078.947 1.73,2.56 0,3.356-1.495-.242-1.094-2.47-1.119-3.356-.284-9.943.084-21.46-.373-32.449-.521-12.577 0-26.363 0-40.281 .001-25.879-1.349-52.898-1.864-76.459-.352,43.25 1.384,89.208 1.492,131.287 .015,5.722-.328,11.687 0,17.157 .081,1.353.423,4.973 1.118,5.222-.767,2.714-2.852,4.11-4.103,6.341-.927,2.43-2.646,4.068-4.849,5.221-.186-23.232-.746-52.462-.746-82.427 0-26.106-1.137-53.526-1.119-79.071-3.539.439-8.871-.915-11.188.746 1.449,1.859 6.178.198 9.697.746 1.004,6.206.354,12.55.373,19.022 .061,20.364.798,39.879.746,60.421-.032,12.716.054,25.511.372,38.044 .324,12.758-.117,25.713.373,38.416 .111,2.867 1.849,5.148-.745,7.087-.798-32.571-.839-73.996-.746-110.4 .011-4.231-.739-8.513-.746-13.054-.018-11.963-.258-26.114-.373-38.417-2.441-.499-5.392-.563-8.205,0-.056,2.791 4.811.66 6.34,1.865 1.591,43.342.208,81.276 1.865,118.979 .611,13.913-.851,28.691.373,42.52 .713.174 1.605-1.15 1.492.373-2.488,1.614-2.822,5.383-5.595,6.713-1.293-35.951 1.149-69.929-.373-106.298-.709-16.926-.688-37.704-1.119-58.557-21.786.707-36.727-.562-61.168.373 .219,2.756 3.628,1.137 5.222,1.119 14.488-.169 38.338.776 54.454.373 .547,42.603 1.492,94.621 1.492,139.12 0,7.082-.883,14.483 0,20.887 .261,1.889.459,2.631 1.492,4.103-1.619,1.904-2.707,6.187-4.849,6.341-1.143-25.479-.852-57.998-1.119-83.547-.348-33.185.003-55.928-.746-83.173-10.997-.013-23.204,0-35.06,0-11.801,0-23.681-.978-33.94,0-.894.085-2.874-.852-2.611,1.119-1.128-.86-1.796-.915-3.356-1.119-12.513-1.638-29.967.936-42.52.373 1.337,2.289 4.562,1.167 6.714,1.119 9.378-.21 19.288-.156 27.973,0 26.064.468 52.906.252 80.936.746 .53,27.918 1.119,53.946 1.119,83.546 0,25.137.238,50.227.373,75.341 .017,3.121.873,6.68-.373,9.697-1.122-3.356-.746-6.973-.746-10.443 0-53.717-.924-100.944-1.118-157.396-36.627.324-76.52-1.118-113.385,0 .984,2.301 3.812,1.438 5.595,1.492 29.341.899 62.106-.463 91.379.373 3.976.113 7.729-.609 11.189.373-15.022,1.318-29.855.217-44.758.373-14.44.151-29.157,0-44.384,0h-76.086c-1.924,0-3.871-.041-5.968,0-1.351.026-3.611-.676-4.849.746 1.363,1.809 3.63.364 5.222.373 2.001.011 3.991.317 5.968.373 48.511,1.365 116.345-1.174 165.227.373 1.345,28.175 1.492,59.291 1.492,83.546 0,31.73-.244,60.59.746,85.038 .236,1.893 1.97,2.655-.373,3.356-1.972-.139-1.075-2.923-1.119-3.729-.646-12.056-.424-24.485-.373-35.433 .204-43.961-.078-90.847-.745-131.66-13.743-.009-26.916-.548-43.639-.373-20.698.217-43.006-.182-62.286-.373-19.43-.192-37.757.355-58.185,0-2.076-.036-4.124-.046-6.34,0-1.568.033-3.76-.635-5.222.746 2.366,1.576 4.922.359 7.459.373 20.584.111 45.528,1.357 64.897.746 33.941-1.071 71.083-.042 101.449,0 1.452,50.307 1.492,101.878 1.492,154.038 0,5.304.401,10.083.373,15.665-.006,1.091 1.354,3.528-1.119,3.729-.306-27.846-.494-59.956-.746-85.411-.306-30.885.18-59.09-.746-86.53-13.979-1.022-27.306-.437-40.654-.746-34.841-.806-85.456.654-130.914-.373 2.118,2.965 6.523,1.851 9.697,1.865 23.682.104 54.774.357 76.833,0 22.146-.358 52.515.522 83.174.746 1.857,54.439.534,112.552 1.864,167.465 .049,1.997 1.296,5.656-1.492,6.714-1.108-43.603-.082-83.974-.745-133.152-.183-13.529-.286-26.985-1.119-39.908-42.635-.654-82.262-.373-124.201-.373h-100.703c-4.55,0-9.228-.477-13.427.373 .963,2.02 3.863,1.118 5.222,1.119 35.415.037 68.461.2 105.552,0 42.905-.232 88.067-.08 126.065.746 .311,22.286 1.229,44.902 1.119,67.881-.143,29.659.373,59.712.373,89.142 0,5.193.445,10.188.373,14.546-.016.954 1.066,3.301-1.119,3.356-.175-29.64-.754-62.139-1.119-88.395-.348-25.018.706-56.193-.746-85.412-12.813-1.112-25.645.069-38.416-.373-14.336-.496-28.75-.569-43.266-.373-14.307.193-29.051.809-43.265.373-3.672-.112-7.602-.663-11.562-.746-29.74-.622-61.689,0-92.125,0-2.147,0-4.492-.622-6.34.746 1.202,2.433 4.419,1.481 6.34,1.492 17.375.094 36.11,0 54.082,0h87.276c30.605,0 55.597.066 86.156.746 2.601,37.487-.433,70.133 1.119,109.654 .637,16.202-.274,36 .746,57.438 .126,2.639.442,5.319-.373,7.832-1.368-1.86-.746-4.229-.746-6.34 0-25.601-.429-54.161-.373-79.444 .005-2.016-.724-4.01-.745-5.967-.047-4.144 1.243-8.758-.373-11.936-.394,36.521.036,77.664.745,111.146-13.274,1.718-26.955.354-37.297.746-3.957.149-8.039-.224-11.936.746-2.803-1.9-6.293-.739-9.324-.746-3.132-.008-6.205-.244-9.324-.373-48.619-2.017-108.037-1.391-157.768-1.119-9.02.049-17.708-.961-26.108,0-.674,1.124-1.143-1.061-2.611-.373-2.016-.369.151,1.115-1.865.746-6.37-1.597-17.084-1.269-26.854-1.119-6.69.103-13.43-1.012-19.021,0 .111-28.314.182-62.627-1.492-96.228-.466-9.354.595-18.458.746-27.227 .021-1.233.186-3.068 0-4.103-.017-.095-.746-.741-.746-.746 .002-.364.721-.938.746-1.119 .291-2.093-.162-6.363 0-9.324 .212-3.881.555-6.817.373-11.562-.32-8.33-.239-16.342 0-24.616 .205-7.069 2.621-8.925 6.341-13.054 3.463-3.844 4.739-4.879 10.07-6.713 .864-.297 1.691-.436 2.611-.746 1.836-.621 3.483-1.242 6.34-1.492 1.922-.192 2.019-2.208 4.849-1.492 .886-.233-.058-2.295.746-2.611h3.729c1.412.044.555-2.181 1.865-2.238h3.73c1.538-.925-1.498-2.32.373-2.611 .234-.35.691-.189 1.119-.373 .544-.233.476-.614.746-.746 1.656-.811 3.552.028 4.103-1.865 1.734-.379 3.676-.55 4.849-1.492 3.986-7.716 9.639-15.28 21.259-14.173 1.877-.036.155-1.508 1.492-2.238 1.201-.082 1.578.66 2.983.373 1.265-2.989 4.146-2.428 6.341-4.103 1.548-1.181 2.68-3.642 4.476-5.222 1.382-1.216 3.738-2.229 5.595-3.73 1.892-1.528 3.319-3.756 4.849-4.103 2.744-.622 8.729,2.827 8.951-1.865-1.854-1.596.657.152 1.119-.373 1.549-1.762 2.222-.46 5.222,0 4.437.681 10.767,0 16.784,0 6.111,0 12.443.516 16.411-.746-9.855-.887-23.204-.102-32.449-.373 1.285-1.411 3.648-.721 5.222-.746 24.75-.395 58.009-.248 79.816-.373-.817-2.011-3.486-1.098-4.849-1.119-22.62-.345-45.518.746-68.627.746-1.75,0-3.673.09-5.595,0-1.283-.06-3.73.807-4.476-1.119-1.608.484-2.857,2.969-4.849,1.865 7.059-5.374 15.166-9.7 21.259-16.038 1.933.863 3.771-.496 5.595.373 1.4-.465.662-3.068 2.238-3.357-.085,1.728.537.619 1.865,1.119 1.547.304.187-2.299 1.119-2.611 1.555.187 1.645-1.09 3.357-.746 1.967-2.382 4.198-5.757 7.086-7.833 9.057-6.507 31.278-3.148 45.13-3.729 3.925-2.36 11.006-1.737 19.021-2.611 5.018-.547 9.954-1.547 14.173-1.865 4.455-.336 10.146-.81 13.055-.373 .11.017.268-.038.373,0 1.694.601 2.95,2.347 4.476,2.238 1.988-.142 3.05-1.515 4.103-2.984 1.909-.329 3.183-1.293 3.729-2.984 .751,1.126 2.299.061 3.357,0 4.306-.248 9.215-.479 14.546-.373 6.699.132 14.442-.514 20.141.373 2.044.318 3.683,1.189 4.849,2.611 .504-1.13 1.53-2.061 2.61-2.984 3.157-2.699 9.263-2.976 14.174-3.356 6.648-.516 12.904.51 19.768,0 4.909-.365 9.643-2.28 14.546-2.238 2.085.018 5.428.377 8.578.746 2.019.236 4.732.941 7.087,1.492 3.413.798 6.72,1.092 9.324,2.238 4.437,1.951 7.003,5.953 11.189,7.086 .727.902 1.132,2.347 1.118,2.984 5.634-.76 10.154-1.101 11.189,4.103 .773,2.141-1.399,1.336-1.119,2.984 1.728,4.781.695,9.459 1.119,14.546 .138,1.649.112,2.812 1.119,4.103-.554,1.039-1.667-.789-1.492.746-.159,1.771 1.167-1.271 1.492.746-.697,7.024.42,14.333 0,21.259-.121,1.989-.683,4.04-.746,5.968-.11,3.369.457,6.684 0,9.697-.098.643-.2,1.788-.746.746 2.418,4.616.52,12.404.746,17.53 .175,3.95.843,7.812 1.119,11.935 .309,4.611-.252,9.499-.373,14.546-.184,7.653 1.475,14.836-.373,21.633 .762,1.007.593,1.369.746,2.238 .513,2.921.668,2.927-1.119,5.594-1.805,2.696-4.278,6.042-5.97,8.583zm-25.735-157.396c-6.229-1.046-17.027-2.217-23.87-1.492-.052.006.057.711 0,.746-.553.34-2.029-1.097-2.238-.373-.787.332-1.102,1.136-2.237,1.119-6.835-.333-14.974.018-19.768.746-1.979.3-4.619-.614-5.968,1.119 1.705,1.235 3.813-.217 5.595.746-.107,1.384-1.974,1.01-1.865,2.611 1.043.946 2.306,1.673 2.984,2.984-2.216,1.546-3.296-.807-4.476-1.492-.515.933-1.127,2.882-3.357,1.492 .203-1.414 1.553-1.68 2.238-2.611-.77-1.574-2.301-2.72-1.865-4.476-6.325.737-14.117,2.367-11.562,9.698 14.515-.078 31.408-.638 46.995-.373-.956-3.425-2.75-7.902-3.356-10.443 1.255.237 2.719.265 3.356,1.119-.617,1.395.548,3.815.746,5.595 8.817.479 18.246-.312 26.854,0 2.049.074 4.374,1.264 5.967,0-3.991-2.244-8.021-5.683-14.173-6.715zm-71.983,4.476c-8.125.243-22.67-1.685-32.449-.746-6.855.659-12.981,3.691-12.309,11.189 14.811.188 35.01-.429 49.979.373-1.796-3.551-1.431-9.261-5.221-10.816zm-94.364,6.34c-1.057,2.424-2.324,4.638-2.61,7.832h52.216c-1.043-2.068-2.16-7.286-4.103-9.697-13.554-2.492-30.19,1.533-45.503,1.865zm168.585-1.865c.634.084.923-.42 0-.373h-6.714c-2.59-.974-5.097.006-7.459,0-1.85-.004-4.288-1.278-5.595.373 7.265-.089 12.12-.058 19.768,0zm-15.665,1.119c-.772.222-2.45-.461-2.611.373 .68.686 2.091.198 2.611-.373zm31.703,0c-2.388-.43-.819,1.139 0,0zm-188.352,1.492c1.892,1.017 1.388-1.302 0,0zm104.059.746c.988,2.048 3.812,1.089 5.222,1.119 28.83.6 55.804-1.078 86.903,0 1.32,22.299.767,47.723.746,70.12-.016,17.38.688,35.217.746,49.605 .017,4.287-.157,9.355 0,11.562 .087,1.229.043,3.024 1.119,3.729 .172-12.084-.222-23.925-.373-33.94-.589-38.79.232-69.725-1.492-102.195-29.925-.988-63.203-.085-92.871,0zm-124.946,0c-2.975-.187-6.447.569-9.697.373-4.637-.28-8.237.457-11.935,1.865-2.746,2.6-5.619,5.073-7.833,8.206 16.642-.592 38.357-.514 51.471-.373-2.372-3.239-1.355-7.58-4.476-10.07-5.104-1.209-11.562.375-17.53-.001zm20.887,1.492h1.119c.048-.669-.37-.873-1.119-.746v.746zm199.914,1.119c.021-.642-.287-.956-.745-1.119-.534.545-.549,1.444.745,1.119zm-93.989-.373c.042.455.111.883.746.746 4.033-.026 7.915.035 11.562,0 3.597-.035 7.128.341 10.07,0 .78-.09 2.16-.015 2.61-1.119-9.321.282-17.132-.187-24.988.373zm85.411-.373c-5.347.248-11.686-.496-16.411.373 4.578.189 12.781,1.091 16.411-.373zm3.356,7.832c.033,1.899.31,5.227.373,7.459 1.088,38.159 0,78.875 1.119,113.758 .085,2.644-.531,5.609.746,7.832 .082-31.977-.934-67.799-.746-102.195 .031-5.737.37-10.826 0-18.648-.229-4.833.245-15.363-1.865-16.038-.617-.197-1.588-.133-2.237.373 3.632-.331 2.525,2.569 2.61,7.459zm-19.394-4.475c-1.292-.573-2.131-1.599-3.356-2.238-12.258.727-26.494-.392-39.162,0-3.55,1.485-3.822,6.427-2.611,10.816 12.486-.121 30.062.376 40.654-.746 1.535.951 4.245.728 6.714.746-.746-3.624-1.777-4.673-2.239-8.578zm7.46-1.119c-.993.021-4.537.724-5.595.373 4.451,1.477 9.693-1.379 14.919.373 1.304,8.158.798,16.589.746,24.989-.229,36.823 1.233,73.561 1.119,108.163-.004.94-.661,2.811.745,3.356 .318-31.75.176-56.2-.373-86.157-.301-16.491-.257-33.772-.745-51.098-4.167-.197-7.308-.072-10.816.001zm-82.055,1.119c1.928.051 4.855.779 6.341-1.119-16.278,1.063-35.186-.897-52.59.373 15.395.602 35.679.466 46.249.746zm7.46-1.119c-.291.083-.434.312-.373.746 .082.291.312.434.746.373 4.839-.363 12.111-.633 16.783,0 1.776,1.289 3.197,1.243 3.73-1.119h-20.886zm72.356,1.492c-.29.082-.434.312-.373.746 5.668.152 7.178-.567 10.816,0 .998,42.527-.092,82.092 1.492,121.59 .075,1.873-1.059,4.339.746,5.595 .394-11.94-.558-22.575-.746-34.687-.393-25.251.368-64.516-1.119-92.871-3.498-.495-8.361-.919-10.816-.373zm-115.995.373c-2.614.245-6.211-.493-8.205.373 2.614-.246 6.212.492 8.205-.373zm4.849,0c-1.256.236-3.464-.481-4.103.373 1.256-.236 3.465.48 4.103-.373zm8.579,0c-1.871.242-4.716-.489-5.968.373 1.871-.243 4.716.489 5.968-.373zm41.772.746c-5.265-.037-11.158-.476-17.902-.373-4.978.077-14.89-.122-19.395.373-1.391.153-2.63-.063-3.357.373-4.14,2.488-.486,7.261.373,11.189 8.367-1.236 20.378,1.229 31.703,0 1.697-.185 3.181-1.031 4.849-1.119 4.283-.225 10.141,1.268 14.173,0-2.53-2.193-1.875-7.573-4.103-10.07-1.928-1.015-4.091-.357-6.341-.373zm70.119,77.951c-.164,11.312.373,18.087.373,29.465 0,9.394-.553,22.174 0,29.838 .078,1.083-.21,2.899 1.119,3.356-.521-18.125-.376-38.322-.746-57.811-.559-29.432-.539-50.406-.746-81.681-3.582-.637-9.09-.808-11.935,0 3.461,1.249 7.453-1.216 10.816.746 1.22,21.974.098,50.25 1.119,76.087zm-187.605-76.832c.547,1.422 2.438.713 3.356.746 4.545.162 8.759,0 13.054,0 16.532,0 36.046-1.207 51.471,0 2.051.16 5.353,2.129 6.341-.746-23.083-.677-47.899.464-74.222,0zm178.654,1.491c-4.485-.253.251,1.126 1.492,0-.741-.621-.474.034-1.492,0zm5.222,0c-1.185.313.662.492 1.119.373 .215,14.383.4,29.092.373,44.011-.051,27.789.833,58.872 1.119,85.784 .021,2.068-.629,4.572.746,6.341 .152-33.55-.629-58.627-1.119-91.752-.206-13.902.924-29.339-.746-45.13-.649-.028-1.16.084-1.492.373zm-183.131.746c7.032-.124 19.951.392 26.108-.373-7.791.165-17.917-.444-26.108.373zm28.347,0c-1.78.956-2.423,3.048-3.356,4.849 1.066,1.793 1.119,4.6 1.864,6.713 18.514.213 34.15-.712 49.605,0-2.123-3.223-2.817-7.874-5.222-10.816-14.336-2.215-29.385.776-42.891-.746zm-11.936,1.492c-1.345-.152-.511.682.373.373 3.529-.936 6.111,1.842 7.833.373-.052-.695-.246-1.247-.746-1.492-2.114.622-5.012.459-7.46.746zm159.634,0c1.21,1.027 4.778-.303 5.967.746-.1,23.743.188,48.312.746,70.492 .5,19.875.073,42.079.373,63.405 .037,2.631-.587,6.205 1.119,7.087 .442-20.24-.373-47.228-.373-69 0-23.777-.529-48.604-.746-73.476-2.236.375-6.044-.822-7.086.746zm-225.65.373c-2.329.059-6.456-.825-7.833.746 9.14.406 17.534.038 24.989,0 3.212-.017 6.851,1.414 9.697-.746-9.807-1.047-18.601-.206-26.853,0zm49.605-.746c-3.582-.464-1.975,1.143 0,0zm3.358.373c-.542.204-1.928-.436-1.865.373 .541-.204 1.927.436 1.865-.373zm.746.373c1.091,1.091 8.732-.591 9.324-.373-1.744-.95-8.58,1.118-9.324.373zm20.513,8.952c-.62-2.03-.383-4.612-1.492-5.968-2.505-3.059-14.094-1.865-21.633-1.865-3.963,0-7.826-.023-11.562,0-3.972.024-8.106-.499-11.188,0-5.017.812-5.363,8.663-7.087,11.935 10.262-1.068 19.887.017 29.092,0 5.848-.011 10.876-.756 16.038-.746 3.073.006 6.154.668 9.324.373 .133-1.25-.99-2.083-1.492-3.729zm154.785-7.087c1.45,22.357.438,47.487 1.492,73.849 .416,10.417 0,22.559 0,35.06-.001,9.722-.333,21.383.372,30.211 .088,1.1-.013,3.058 1.119,3.729-.604-31.226.188-63.684-1.119-91.005-.21-4.409.754-9.023-.745-13.427 1.412-.9.716-3.042.745-4.476 .242-11.731.021-25.102-.372-34.687-1.134.234-3.213-.478-3.73.373 .878-.008 1.098.642 2.238.373zm-237.585.373c-.886.066-2.889-.686-3.357.746 9.184.906 19.644-.289 28.346,0 2.183.072 5.999,1.742 7.087-1.119-12.963.058-22.137-.365-32.076.373zm229.378,1.492c-11.781-1.508-28.891.063-42.892-.373-.8,2.201 2.425,1.42 3.729,1.492 13.188.723 31.557-1.27 45.876-.373-.103,5.012-.428,10.559-.373,16.784 .053,5.95-.563,13.158.373,19.768 .151,1.063.244,1.383.746,2.238-.881,1.68-.4,3.734-.373,5.595 .461,31.083.473,56.558.746,82.427 1.433-.681.701-2.646.746-3.729 .052-1.251-.007-2.501 0-3.729 .168-29.179-.44-61.719-.746-91.752-.105-10.315.157-20.216-.746-29.092-2.766-.159-5.066.152-7.086.744zm-203.643,1.119c1.132.716 4.429.866 5.595-.373-1.116-.446-5.058-.956-5.595.373zm-4.849-.373c-9.481-.651-22.55,1.11-31.33.746-5.232,3.346-9.601,7.556-13.8,11.935 18.565-.206 34.18-1.105 52.589-.373 .192-1.623-1.571-3.223-2.238-5.595-.539-1.914-.107-4.258-1.492-5.595-1.09-.557-2.394-1.026-3.729-1.118zm200.287,1.119c-3.535,0-7.51-1.369-10.443.373 6.534.367 15.402.97 20.514-.373-3.126-.851-6.585,0-10.071,0zm11.19,0c-1.504,1.054 1.832.371 1.492,1.492 .697,9.723.232,21.253.373,32.449 1.91.009.66-2.778.745-3.357 .22-4.483 0-10.816 0-17.157 0-4.838.595-9.8-.745-13.8-.865-.119-1.433.06-1.865.373zm-202.153.746c-.396-.847-2.345-.142-3.357-.373-.555,1.516 3.485,1.689 3.357.373zm224.904,108.163c0,2.307-.628,4.964.746,7.086 .194-18.905-.383-39.277-.746-56.692-.427-20.535.846-39.354-.745-58.93-.61,37.503.745,73.007.745,108.536zm-84.665-107.417c-1.384.075-2.954.784-3.356,1.119-3.283,2.737-1.413,7.283 0,11.562 17.452.29 31.782-1.354 49.232,0 .019-1.723-1.185-2.86-1.864-4.849-1.023-2.988-.839-4.593-2.611-6.34-.529-.522-.996-1.195-1.492-1.492-8.864.816-29.65-.555-39.909,0zm61.914,1.492c-.284,20.685.308,37.499.746,53.335 .071,2.594-.089,5.187 0,7.833 .057,1.698-.676,3.872.746,5.221-.533-21.232-.328-49.279-.746-67.135-5.184-.602-9.649-.338-14.919-.373-1.206-.008-3.242-.661-4.103.746 5.617.865 13.033-1.272 18.276.373zm-95.855,0c5.058,1.126 16.034,0 21.633,0 2.535,0 5.693.609 6.713-.746-9.076-.87-19.767-.125-29.465-.373 .116,1.394.402.959 1.119,1.119zm-108.535,3.357c2.267-.285-.107-2.894 1.865-3.357-.44-.43-1.318-.422-2.238-.373-.292,1.659.496,2.238.373,3.73zm189.471-1.865c2.828-.777 7.019-.191 10.443-.373 .062-.809-1.323-.169-1.865-.373-2.703-.001-7.917-.606-10.816.373 .656.214 2.191-.451 2.238.373zm-58.93,0c2.101-.54 5.015.999 5.595-.373-1.293-.894-5.682-.078-5.595.373zm71.237-.374c1.664,1.231.164,13.813.373,17.53 .075,1.325.362,2.512.373,3.73 .157,17.961.857,36.49.746,52.962-.127,18.86.642,36.167.746,55.573 .024,4.609-.174,9.639 0,13.055 .062,1.239.045,3.267 1.119,4.103-.513-23.739-.731-48.557-1.119-74.595-.282-18.976.568-47.936-.746-69-.05-.803.998-4.062-1.492-3.73-.438.059-1.059-.064-1.118.373 .267.143.878-.179 1.118-.001zm-116.367,2.239c-2.092,3.471-3.019,7.029-1.492,11.562 18.683.215 38.049-.443 55.2.373-2.247-3.472-2.33-9.108-5.222-11.935-16.107-.908-32.119-1.422-48.486,0zm102.195-.746v1.119c3.998.229 8.926-.471 12.309.373 .161,22.829 1.119,46.909 1.119,73.103-.001,22.845.215,50.869 1.118,70.119 .052,1.102-.851,3.603 1.119,4.103-1.072-31.482-.631-62.445-1.119-94.362-.05-3.294.421-7.441-.373-10.443-.436-1.65-.357-.27 0-1.865 .104-.458-.027-1.021 0-1.492 .771-12.884-1.232-26.705-.373-40.654-3.798-.584-10.011-.642-13.8-.001zm-129.049,1.491c6.097-.032 14.742.133 20.141,0 1.794-.044 4.113.24 4.849-1.119-7.31-.926-16.271.747-25.362-.373-.03.65.082,1.16.372,1.492zm129.795,1.119c.44,1.386 2.927.694 4.476.746 2.056.069 4.036-.304 5.222.373 .667,37.208.504,75.367 1.119,111.146 .211,12.262.662,24.63 1.492,36.552-.428-47.439-1.035-99.432-1.865-148.817-3.614-.26-7.666-.25-10.444,0zm-108.535,0c-1.123-.054-2.28,0-3.357,0-26.579,0-49.331.556-75.341.373 .783,1.876 3.192,1.073 4.476,1.119 11.907.421 23.146-.373 35.433-.373 13.829,0 25.021-.4 36.552,0 1.4.049 3.669,1.39 4.849-.373-.196-1.39-2.029-.718-2.612-.746zm108.908,1.865c.146,2.144 5.669-.317 7.46,1.119 .271,19.4.575,38.335.745,56.692 .114,12.283.456,30.165.746,39.535 .067,2.164-.678,4.681.746,5.595-1.118-34.257.071-73.601-1.864-103.314-3.196.087-5.683.037-7.833.373zm-185.368.373c.36,1.405 2.271.729 2.983.746 6.699.162 12.939-.541 18.276-.373 1.878.059 4.317,1.285 5.222-.746-8.948.813-17.101.119-26.481.373zm78.697,7.833c-.52-1.796-.156-3.792-1.119-5.222-1.766-2.624-8.863-2.547-12.308-2.238-11.774,1.056-29.646-1.657-38.417,1.119-2.32,3.251-3.062,7.086-1.118,11.189 17.14-.029 36.882.02 55.2,0-.582-1.751-1.643-2.794-2.238-4.848zm107.79-5.595c1.29.688 3.661,1.902 5.222,1.119 .261-1.148.261-.717 0-1.865-1.685.305-4.698-.719-5.222.746zm-162.617,3.357v-1.865c-.892.228-2.706-.468-2.983.373 1.416.075 1.414,1.568 2.983,1.492zm166.719-.373c.849,53.456 1.074,97.239 2.611,146.952 1.438-.663 1.038-2.493 1.118-3.73 .077-1.18.046-2.952 0-4.103-1.964-49.471-1.271-92.416-2.237-139.865-.478-.021-.517-.478-1.119-.373-.02.477-.478.516-.373,1.119zm-170.449,0c-10.238-.573-20.283-.746-30.957-.746-5.403,0-11.552.238-17.157,1.119-1.768,2.729-3.502,7.675-1.865,11.562 17.745-.041 35.938.051 54.827,0-1.536-4.058-.835-10.353-4.848-11.935zm121.963-.373c-2.021.011-4.834-.623-5.595.746 18.88,1.551 36.363-1.132 51.843.373 .447,28.121.224,56.735 1.492,82.054 .593-27.288-.153-56.081-1.119-83.546-15.39.714-31.688.293-46.621.373zm-175.298.746c-7.256-.125-18.168.373-25.735.373-2.961,0-6.667-.875-7.833,1.119 1.835,1.862 5.497.259 7.833.373 .664.032 1.538.669 2.238.746 5.262.575 11.642-.373 17.157-.373 3.171,0 7.075.854 9.325-1.119-.381-1.591-2.098-1.104-2.985-1.119zm221.546,77.206c-.719-15.718-.149-41.596-.745-57.065-.185-4.788.184-14.48-.373-17.53-.48-2.629-.737-1.66-2.611-1.492-11.928,1.069-24.454.202-35.06.373-3.699.06-7.581-.673-11.189.373 10.865.426 23.801.148 36.552,0 4.033-.047 7.859-.452 11.189.373 .968,36.454.797,77.51 1.864,115.25 .289,10.195.168,21.093.746,31.702 .066,1.208-.865,3.59 1.119,4.103-1.021-18.562-.147-46.719-1.492-76.087zm-51.47-73.85c-18.014,1.615-36.956-1.208-55.946,0 .383,2.325 3.47,1.438 5.222,1.492 8.163.25 19.241.545 24.616-1.119 1.179.784 2.738,1.369 4.103,1.492 5.1.46 11.359-.373 17.53-.373 11.897,0 24.474.163 35.805,0 5.548-.08 10.906-1.042 15.292.373 .651,25.427.634,53.608 1.492,76.833 .653,17.67.188,38.03 1.119,54.828 .365,6.592-.888,13.954.746,20.141 1.435-.809.36-2.265.373-3.357 .107-9.724-.109-23.975-.373-34.687-.939-38.082-1.231-78.008-2.238-115.995-14.709,1.431-33.371-.916-47.741.372zm-168.585,1.493c-.083-.706.42-.823.373-1.492h-1.865c.046.949.543,1.446 1.492,1.492zm-.373,5.967c-.319-1.272.009-2.577-.373-3.729-1.087-3.286-4.645-2.973-7.832-2.984-5.545-.019-10.528.757-15.665.373-1.105-.083-2.252-.677-3.357-.746-5.622-.351-11.026.368-16.038,0-4.86,3.47-10.049,6.611-13.427,11.562-.938.429-2.559.177-2.611,1.492 11.432-.43 24.562-.311 35.06.373 4.155-2.394 9.963-1.094 15.292-1.119 3.666-.018 7.161-.829 10.816,0 .6-1.658-1.347-3.16-1.865-5.222zm256.98-7.087c-.393,2.166 1.616.156 0,0zm-137.255,2.238c-1.379-.015-3.667-1.315-4.849.373 .419.079.581.414.746.746 7.548.688 15.209-.022 22.006,0 1.935.006 5.02,1.506 5.968-1.492-9.267.153-15.94.461-23.871.373zm71.238-.373c-.418.079-.58.414-.746.746 6.2,2.552 15.484-.418 23.498,1.119 1.185,41.291.237,78.401 1.864,118.606 .392,9.673-.052,22.041.373,29.838 .059,1.075.045,3.007 1.119,3.729-.396-42.265-1.456-100.274-2.61-154.039-9.809-.162-14.988.544-23.498.001zm66.763,1.492c-.44-.054-.846-.664-1.119,0 .837,2.887.296,4.606 1.119,0zm-69,0c-10.113.028-23.668,0-33.195,0-6.385,0-13.181-1.412-13.8,3.729 1.938,2.166 2.051,6.155 2.984,9.325 19.226-.073 32.051-.46 51.097-.373-2.659-3.929-1.797-11.381-7.086-12.681zm-130.541,1.492v1.119c11.523-.536 25.313,1.194 35.06-1.119-10.211-.357-22.413.017-35.06,0zm49.232.373c.892-.227 2.706.468 2.983-.373-1.319-.162-2.121-.574-2.983.373zm3.73,0c2.119-.011 2.229.716 3.729-.373-.943-.347-3.834-.279-3.729.373zm6.714-.373c-.052.566 5.538.66 6.713,0-1.732.036-4.539-.833-6.713,0zm9.324.373c1.451.392 4.957-.5 3.729-.373-1.643-.082-2.568-.583-3.729.373zm8.951-.373c-1.273.054-2.863-.78-3.356.373 2.983-.795 6.284,1.82 7.832,0-.638-1.684-2.907-.438-4.476-.373zm-9.697,0c-2.389-.43-.819,1.139 0,0zm11.562,1.865c-17.382-.054-30.467-.016-48.114,0-4.271,2.981-.203,7.558.373,11.935 17.941.256 35.041-.23 53.709.373-1.688-2.914-1.61-10.821-5.968-12.308zm-78.325,0c-.29.082-.434.312-.373.746 .083.291.312.434.746.373 6.313.455 15.166-.602 21.26,0 2.257.223 5.472,2.25 5.968-.746-9.732-.74-16.034.517-27.601-.373zm197.677,2.238c.102-.508-.23-1.456-.373-.746-.102.508.231,1.456.373.746zm-253.996.373c-.291.083-.434.312-.373.746-.001.374.302.444.373.746 8.179.188 17.157-.494 24.616-.373 1.755.028 4.836,1.498 5.595-1.119-9.943.737-19.015-.062-30.211,0zm84.666,8.951c-1.093-3.05-.761-7.212-4.103-8.206-8.016-1.048-19.371-1.005-28.347-.373-8.431.594-17.07-1.834-22.005,1.865-1.236,3.204-3.131,7.249-1.492,11.189 21.967.262 39.95-.831 58.184,0-.311-1.693-1.569-2.607-2.237-4.475zm169.33-4.848c-.729-.856.719-2.406-.373-3.357 .174.95-1.355,3.226.373,3.357zm-236.466-1.119c1.663.167 3.81.92 5.222,0 1.042,1.038 5.322,2.147 5.595-.373-4.437-.575-12.241.562-16.784-.373 .993,1.52 3.825.531 5.967.746zm-42.519,1.492c-2.895,1.532-3.439,4.394-4.849,7.833-1.037,2.527-2.244,3.903-2.611,5.594 22.866.062 39.992-.947 61.541,0-.41-1.664-1.611-2.674-2.238-4.476-1.021-2.935-.657-6.449-2.983-8.206-16.601-2.522-30.606.278-48.86-.745zm-41.773,1.118c9.984-.142 20.213.364 27.973.373 3.224.004 7.112.585 10.07-.746-11.369.303-28.221-.627-38.043.373zm299.125,12.309c.697-3.753.448-8.912 0-11.935-.082-.291-.312-.434-.745-.373 .727,3.586-.269,7.785.745,12.308zm-303.228-10.443c13.253.763 24.129-.181 35.433,0 1.608.025 3.839,1.679 5.222-.746-11.784,1.107-29.467-.691-40.655.746zm324.861,2.237c.06-.26-.13-2.171-.373-1.119-.327,1.42.2,1.868.373,1.119zm-290.92-.373c.917.919 6.542,1.756 6.34-.746-2.01.352-5.513-.789-6.34.746zm-38.416,0c-4.939.029-8.191,1.376-11.189,3.356-.606,1.383-1.321,2.657-2.611,3.357 .076,1.402-1.16,2.566-1.865,3.73-.603.995-2.474,2.48-1.119,2.983 17.443.377 43.564-.783 58.93.747 .245-1.572-1.191-2.972-1.865-4.849-1.134-3.162-1.376-7.09-3.73-8.951-10.919-.551-25.632-.438-36.551-.373zm247.281,2.238c7.27-.136 15.588.319 21.26-.373 1.074.418.254,2.73 1.492,2.984-.121-1.371.318-3.302-.373-4.103-9.347.281-15.463-.371-23.87.373 .496.374 1.125.615 1.491,1.119zm-207.373,0c1.184.801 3.55.906 4.476-.373-.831-.466-4.207-.898-4.476.373zm123.454-.373c1.302,2.02 4.737,1.119 7.087,1.119h15.665c2.773,0 6.531.846 7.459-1.119-11.668.251-19.816.108-30.211,0zm85.785,9.324c-1.026-3.157-.757-7.388-3.356-8.205-5.146-1.618-15.304-.746-24.244-.746-9.352,0-17.782-.834-22.378-.373-8.287.832-7.617,9.152-6.341,14.546 18.378-.448 37.729.277 58.558,0 .377-2.126-1.462-2.831-2.239-5.222zm-.374-7.832c1.569,1.869 5.598.764 8.951.746 3.633-.02 7.358-.276 10.07.373 .326,43.746 1.255,90.321 1.865,135.017 1.207-.556 1.091-2.367 1.119-3.357 .038-1.34-.348-3.162-.373-4.476-.446-22.555-.266-41.781-.746-58.557-.677-23.654-.211-45.511-1.119-69.747-5.805-.601-12.973.377-19.767.001zm-80.562,1.119c2.828-.777 7.02-.192 10.443-.373 1.345.153.511-.681-.373-.373-2.452.09-4.707-.017-6.714-.373-1.897.248-4.56.762-6.34,0-.378,1.746 2.802-.067 2.984,1.119zm-124.946-.746h-2.611c-.73,2.091 3.34,2.091 2.611,0zm138,0c-2.389-.43-.819,1.139 0,0zm4.103,0c-.773.222-2.45-.461-2.611.373 .772-.222 2.45.461 2.611-.373zm4.849,0c-4.979-.432-3.568,1.1 0,0zm-85.411,1.865c.925,1.439 3.103,1.047 4.849,1.119 5.578.228 10.858-.373 16.783-.373 4.144,0 8.7.825 11.936-1.119-9.396-.294-20.362.671-33.568.373zm69.746,0c.393-.021.293-.478-.373-.373-2.574.051-5.907-.527-6.714.373h7.087zm1.492-.373c-.604.75 3.254.21 4.476.373h5.595c1.182.764 4.926,2.73 5.221,0-3.916-.998-9.875-.055-15.292-.373zm-35.061.373c1.568-.475 3.119.973 3.357-.373-.898.121-4.263-.318-3.357.373zm25.363-.373c-1.255.236-3.464-.481-4.103.373 1.256-.236 3.465.481 4.103-.373zm83.547.373c.259,1.374 2.257.71 3.356.746 4.104.134 9.389-.659 11.936.746 .102,25.696 1.18,52.44 1.492,77.579 .344,27.725-.448,54.921 1.118,80.562 .849-3.024.373-6.289.373-9.325 0-11.218-.291-21.22-.373-31.329-.308-38.226-.704-78.07-1.491-118.979-5.219-.389-9.938-.084-16.411,0zm-107.417,1.492c-1.454-.003-4.08-.092-5.222.373-3.185,1.298-4.146,5.859-4.476,9.324-.799,1.438-2.133,2.343-1.865,4.849 21.639.339 42.231-.8 62.287.373-2.573-4.14-2.732-10.694-5.968-14.173-11.829-1.25-32.892-.718-44.756-.746zm-35.806.373c1.557,1.861 4.755,1.119 7.46,1.119 3.995,0 8.609-.382 11.562-.373 2.647.008 7.38,1.627 8.951-.746-8.905-.293-17.575.121-27.973,0zm143.596,0c.486,2.204 2.992.746 4.476.746 2.698,0 5.744-.165 8.205.373 .659,5.466.312,13.224.373,19.022 .02,1.846-.859,4.839 1.119,5.595 .282-5.962.225-16.46-.373-26.108-4.322.543-8.708-.059-13.8.372zm-187.607,2.611c-3.621,0-7.167.126-10.816,0-3.123-.108-6.747-1.219-9.697.373 26.168.82 55.739.373 82.801.373 2.693,0 5.999.888 8.205-1.119-21.347-.732-47.006.373-70.493.373zm244.672.373c-.347,15.791.477,29.249.745,43.265 .237,12.332-.626,29.568.746,42.146 .202-27.387-.254-57.426-.746-86.53-.438.059-1.059-.064-1.118.373 .29.082.434.312.373.746zm-263.693,1.865c3.278,2.388 8.708,1.686 14.173,1.865 5.205.17 10.572-1.192 14.919-.373 .583-.909 2.009-.975 2.238-2.238-10.525.917-20.779-.167-31.33.746zm88.394-.747c-2.366.245-5.713-.492-7.459.373 1.58.825 7.326,4.093 7.459-.373zm-8.578,1.493c-6.018-1.242-14.09,0-22.751,0-8.358,0-17.21-.863-22.751,0-1.62.252-3.739,2-5.595,2.238-1.729.221-3.639-.402-5.222-.373-12.01.222-23.091-.036-33.567.373-1.048.041-2.374-.753-3.357.373 15.618.03 30.931-.117 42.519.373-1.271,2.018-1.317,4.637-2.238,6.714-.812,1.833-2.614,2.914-2.984,4.849 19.676-.091 42.403.059 64.151,0-2.797-4.783-2.804-13.434-8.205-14.547zm-144.341,2.237c1.715.746 8.979-.294 9.697-.373h-2.238-4.476c-.18-.516-3.196.281-2.983.373zm276.374,1.492c.677,12.884.632,24.963.746,38.043 .112,12.969.691,26.076.373,40.282-.303,13.479.109,24.698.745,39.162 .561,12.736-.413,26.821 0,39.162 .045,1.33-.897,4.083 1.119,4.849-.514-56.923-.241-106.267-1.864-163.736h-2.984c-1.132,1.319 1.707,1.055 1.865,2.238zm-261.082-1.865c-1.012.231-2.96-.474-3.357.373 1.013-.231 2.96.474 3.357-.373zm1.865.373c1.892,1.018 1.388-1.302 0,0zm20.513.373c1.134-.234 3.213.477 3.73-.373-.811-.624-3.36-.598-3.73.373zm4.476,0h3.73c-.181-.994-2.711-.707-3.73,0zm107.79,0c.524.097.425.818.746,1.119 1.049-.07 1.589-.649 1.491-1.865-.988.006-2.195-.207-2.237.746zm-101.449-.373c-2.389-.43-.82,1.14 0,0zm-45.13,1.119c-1.995.243-4.965-.49-6.341.373 1.995-.243 4.966.49 6.341-.373zm10.07,0c-1.012.231-2.96-.474-3.357.373 1.012-.231 2.96.474 3.357-.373zm8.951,0c-2.738.246-6.46-.493-8.578.373 2.858.269 6.677.582 8.578-.373zm16.784,0c-1.321.024-3.461-.671-4.476.746 16.719.016 33.125.625 49.606.373 2.013-.031 4.82.647 6.34-1.119-16.325.717-34.417-.316-51.47,0zm-46.249,1.865c-.374-.001-.444.302-.746.373v1.119c17.729.711 35.584-.824 50.352-.373 14.368.439 29.343.777 42.146.373 1.713-.054 4.501.946 5.594-1.119-31.627-.584-58.029-.252-97.346-.373zm250.266,1.865c-6.974.283-14.191.529-20.514.373-2.294-.057-5.255-1.271-6.713.373 3.534,1.603 8.053,1.123 12.308,1.119 12.007-.009 28.599-.045 42.893,0 1.105,8.943.333,14.867.373,24.616 .094,22.975.746,46.19.746,69.746-.001,22.999.248,46.918 1.118,70.492 1.364-.96.663-2.675.746-4.103 .091-1.563.387-3.272.373-4.849-.395-44.837-1.119-75.107-1.119-113.384 0-12.43.1-26.559-.373-39.535-.046-1.277.906-4.087-1.118-4.849-8.642.497-18.978-.394-28.72.001zm-256.233.746c.211,1.995 2.593,1.053 3.73,1.119 7.877.456 18.948-.083 27.6,0 3.581.035 7.465.893 9.697-1.119-12.875.014-27.671-.061-41.027,0zm97.346,8.951c-.959-3.236-.81-6.132-2.984-7.833-2.282-1.785-7.24-.932-11.935-.746-13.195.524-30.949-1.508-40.654,1.119-2.009,2.049-2.435,5.838-3.73,8.578-.877,1.857-2.633,2.869-2.611,4.476 22.748-.479 43.612-.79 64.152,0 .23-1.83-1.535-3.222-2.238-5.594zm5.595-7.832c-.464-2.271-4.859-.611-7.087-1.119 .497,2.52 5.282.772 7.087,1.119zm-71.984,1.491c-10.172-.126-17.502,0-28.719,0-2.319,0-5.625-.917-7.087,1.119 12.655-.128 26.161.317 39.536,0 1.15-.027 3.273.687 4.103-.746-2.451-1.169-5.173-.339-7.833-.373zm66.762,0v1.119c1.247-.37 4.181.948 3.729-1.119-.516-.731-3.164-.454-3.729,0zm-98.465,1.866c-.638.005-4.385.912-4.849.746 3.25,1.16 10.325,0 14.173,0 4.849,0 10.172-.685 14.546,0 1.658.26 3.041,1.56 4.849,1.865 1.582.267 3.969.157 5.595,0 1.437-.139 4.016.624 4.103-1.865-12.362-.62-26.588-.838-38.417-.746zm99.957,1.864c.333-.661 1.514-.476 1.119-1.865h-1.865c-.055.926-.069,1.811.746,1.865zm99.958,18.649c-21.427-.261-43.669.464-63.406,0-28.045-.659-50.331-.535-77.579,0-7.782.152-22.095,1.263-25.735-1.492-4.803-3.635-2.55-12.205-7.087-15.292-1.995-1.357-5.149-1.2-8.951-1.119-3.41.073-7.292.164-11.189,0-14.395-.607-26.113-1.067-32.822,6.34-2.312,2.553-5.459,6.024-6.34,8.952-.989,3.286-.311,7.392-.373,11.562-.069,4.675-.732,9.635-.746,13.8-.031,9.836.986,18.54 0,27.6-.656-.09-.85-.642-.746-1.491-.961-.967-1.296.597-1.119,1.864-.291,1.658 2.242.493 1.492,2.611-.083,10.831 0,21.327 0,31.702 0,10.22-.315,20.008 0,29.838 .47,14.649 1.24,30.145 1.119,45.131-.041,4.999-.08,9.929.373,14.546 16.844-.17 33.706.373 50.352.373 17.158,0 34.084-.395 50.352,0 32.279.781 58.09-.604 85.784,0 1.975.043 4.111.83 5.968.745 .787-.035 1.496-.638 2.237-.745 1.047-.152 1.924.38 2.984.372 3.201-.021 6.016.275 9.324.373 8.314.248 17.862-.214 26.854.373 9.988.652 21.07.96 34.313.746 3.441-.056 7.035.324 10.07-.746 1.05,1.008 2.422,1.018 4.103,1.119 3.924.236 10.769-.799 14.546-1.865 .141-33.997-.106-73.188-.373-105.924-.04-4.903.295-9.715-.746-14.174 1.494-9.59.403-18.074.373-26.107-.033-8.763.049-18.335 0-29.092-18.391.022-40.848.27-63.032,0zm-170.45-16.411c-.132,1.319 1.823.682 2.611.746 2.003.164 3.551.083 4.849,0-1.172-1.835-5.589-.609-7.46-.746zm.746,2.611c1.154.396 5.937,1.222 5.967-.746-1.401-.514-5.577-.956-5.967.746zm310.315,1.119c-.087,15.598.373,30.577.373,46.622 0,4.98-.378,10.201 0,14.919 .062.784.074,2.761 1.119,3.356 .053-22.25-.965-39.759-.746-65.644-.082-.291-.312-.434-.746-.373v1.12zm-309.196,2.238c1.226-.266 2.807-.177 2.984-1.492-.619-.625-2.19-.296-3.357-.373-.119.865.06,1.432.373,1.865zm266.676-.746c.226,21.246 1.119,44.373 1.119,67.508 0,23.28-.01,45.875 1.119,66.39 1.536-1.744.404-4.17.373-6.341-.111-7.534 0-16.096 0-24.616 0-34.793-.99-69.316-1.119-102.941-.021-.228-.056-.441-.373-.373-.021-.228-.056-.441-.373-.373-.003.493-.653.341-.746.746zm-262.946,8.579c34.126.706 70.776.373 105.551.373 4.759,0 9.262.75 13.801.746 4.33-.004 8.574-.397 13.054-.373 34.217.185 68.743-.448 96.974.373 .669,19.316.927,43.981.746,68.254 2.137-1.815.716-4.871.746-7.459 .031-2.728.479-5.619.372-8.579-.614-17.007.295-38.281-1.118-54.081-40.527-.374-80.911-.373-122.336-.373-34.448,0-73.619-.007-108.536-.373-.272,1.017.741.75.746,1.492zm295.023,83.919c-.09-22.788-.422-47.504-1.492-66.762-.298,23.499.083,43.929 1.492,66.762zm3.356-27.6c.163,7.349-.032,15.07 1.119,22.005-.418-10.658.042-23.248-.373-34.687-.147-4.079-.095-9.175-1.119-11.189-.201,8.519.208,16.406.373,23.871zm29.465-19.023c.983.113 1.225-.516 1.119-1.491h-1.119v1.491zm-7.832,7.833c1.689-1.418.285-5.931.746-8.578-.082-.291-.312-.435-.746-.373-.128,3.578-.014,5.159 0,8.951zm5.968-5.221c.949-.046 1.446-.543 1.491-1.492-1.622-.149-2.07.297-1.491,1.492zm-16.038,17.902c.059.614-.63,2.539.746,2.611-.092-4.793.01-11.301 0-15.665h-1.119c.647,4.324-.041,8.762.373,13.054zm7.086-7.086c-.366-1.524.041-1.508 0-3.357-1.304.34-.879,3.496 0,3.357zm-8.206,4.103c.102-.508-.23-1.456-.373-.746-.101.507.232,1.456.373.746zm-1.864,11.562c.814-3.839.257-8.729-.373-10.816-.561,2.857-.825,8.49.373,10.816zm1.864-3.357c.568-.568-.574-2.149-.746-1.118 .024-.14.69,1.175.746,1.118zm-39.535,34.686v11.189c0,3.636-.818,8.112 1.119,9.324-.653-6.178.293-14.767-.373-21.632-.034.589-.951.293-.746,1.119z" fill-rule="evenodd"/>
 <path d="m352.579,13.054c1.307-1.651 3.745-.377 5.595-.373 2.362.006 4.869-.974 7.459,0h6.714c.923-.047.634.457 0,.373-7.649-.058-12.504-.089-19.768,0z" fill="#fffff7" fill-rule="evenodd"/>
 <path d="m388.757,24.99c-3.363-1.962-7.355.503-10.816-.746 2.845-.808 8.353-.637 11.935,0 .207,31.275.188,52.25.746,81.681 .37,19.489.225,39.686.746,57.811-1.329-.457-1.041-2.273-1.119-3.356-.553-7.664 0-20.444 0-29.838 0-11.378-.537-18.153-.373-29.465-1.022-25.838.1-54.114-1.119-76.087z" fill="#fffff7" fill-rule="evenodd"/>
 <path d="m358.919,36.552c.86-1.407 2.896-.754 4.103-.746 5.27.035 9.735-.229 14.919.373 .418,17.856.213,45.903.746,67.135-1.422-1.35-.689-3.523-.746-5.221-.089-2.646.071-5.238 0-7.833-.438-15.836-1.03-32.65-.746-53.335-5.243-1.645-12.659.492-18.276-.373z" fill="#fffff7" fill-rule="evenodd"/>
 <path d="m275,58.557c1.228-.126-2.278.765-3.729.373 1.16-.956 2.085-.455 3.729-.373z" fill="#fffff7" fill-rule="evenodd"/>
 <path d="m389.503,162.99c.041,1.85-.366,1.833 0,3.357-.879.139-1.304-3.017 0-3.357z" fill="#fffff7" fill-rule="evenodd"/>
 <path d="m145.578,271.153c.299-.916 2.512,2.366 4.103,2.61-1.393.635-3.162-1.553-4.103-2.61z" fill="#fffff7" fill-rule="evenodd"/>
 <path d="m143.34,273.018c1.168.074 1.524.961 2.238,1.491-.157.372-2.168-.542-2.238-1.491z" fill-rule="evenodd"/>
 <path d="m123.572,296.142c-1.389-.109 1.098-.928.746,0 .876.621-.136-.034-.746,0z" fill-rule="evenodd"/>
 <path d="m300.362,118.233c.049,10.757-.033,20.33 0,29.092 .03,8.033 1.121,16.518-.373,26.107 1.041,4.459.706,9.271.746,14.174 .267,32.736.514,71.927.373,105.924-3.777,1.066-10.622,2.102-14.546,1.865-1.681-.102-3.053-.111-4.103-1.119-3.035,1.07-6.629.69-10.07.746-13.243.214-24.325-.094-34.313-.746-8.992-.587-18.54-.125-26.854-.373-3.309-.098-6.123-.394-9.324-.373-1.061.008-1.938-.524-2.984-.372-.741.107-1.45.71-2.237.745-1.856.085-3.993-.702-5.968-.745-27.694-.604-53.505.781-85.784,0-16.268-.395-33.194,0-50.352,0-16.646,0-33.508-.543-50.352-.373-.453-4.617-.414-9.547-.373-14.546 .121-14.986-.649-30.481-1.119-45.131-.315-9.83 0-19.618 0-29.838 0-10.375-.083-20.871 0-31.702 .75-2.118-1.782-.953-1.492-2.611-.177-1.268.158-2.831 1.119-1.864-.104.85.09,1.401.746,1.491 .986-9.06-.031-17.764 0-27.6 .014-4.166.677-9.125.746-13.8 .062-4.17-.616-8.276.373-11.562 .881-2.928 4.028-6.398 6.34-8.952 6.709-7.408 18.427-6.947 32.822-6.34 3.897.164 7.78.073 11.189,0 3.802-.082 6.957-.239 8.951,1.119 4.537,3.087 2.284,11.657 7.087,15.292 3.64,2.755 17.953,1.645 25.735,1.492 27.248-.535 49.534-.659 77.579,0 19.737.464 41.979-.261 63.406,0 22.184.27 44.641.022 63.032,0zm-270.033-6.34c.619.625 2.189.297 3.356.373 1.097-.629-1.164-1.676 0-2.238h1.119c.271,1.141-.644,1.097-.373,2.238 1.966-.254 3.879,1.224 4.476-.746-2.662-.819-2.212-4.75-3.729-6.713h-1.119c-1.392,2.214-1.986,5.225-3.73,7.086zm38.789,85.038c-.229-.109-1.436-.928-1.492,0 .694-.357 1.247,1.117 1.492,0zm89.886,71.984c.004-1.508-1.098-4.173-1.865-5.222-1.12-1.53-3.327-1.921-4.476-3.356-2.034.701-4.679.792-7.459.746-2.475,1.011-3.941,5.006-2.984,8.205 .206-.664.192-1.549.746-1.864-.13,10.376 16.013,10.868 16.038,1.491zm-13.426,5.594c-.713-.53-1.07-1.417-2.238-1.491 .07.949 2.081,1.863 2.238,1.491z" fill="#fffff7" fill-rule="evenodd"/>
 <path d="m142.967,267.423c-.554.315-.54,1.2-.746,1.864-.957-3.199.509-7.194 2.984-8.205 2.781.046 5.425-.045 7.459-.746 1.149,1.436 3.356,1.826 4.476,3.356 .767,1.049 1.869,3.714 1.865,5.222-.026,9.378-16.169,8.886-16.038-1.491zm13.427,1.865c-.053-1.314-1.673-1.062-2.611-1.491-1.461-1.522-2.75-3.218-3.729-5.222-.481,3.383 2.056,6.861 6.34,6.713zm0,1.865c-.275-1.466-2.253-1.229-3.73-1.492-1.896-1.71-3.38-3.831-4.476-6.341-.761,4.645 2.514,8.405 8.206,7.833zm-1.119,1.492c-4.782-.812-8.09-3.1-8.579-8.206-.082-.29-.312-.434-.746-.373-1.778,5.859 4.109,10.958 9.325,8.579zm-5.595,1.118c-1.591-.244-3.804-3.526-4.103-2.61 .942,1.057 2.711,3.245 4.103,2.61z" fill-rule="evenodd"/>
</svg>
